<svg width="40" height="40" viewBox="0 0 40 40" fill="none" xmlns="http://www.w3.org/2000/svg">
<circle cx="20" cy="20" r="19.5" fill="#FFBE31" stroke="#FFBE31"/>
<path fill-rule="evenodd" clip-rule="evenodd" d="M20 20C20 20.7956 19.6839 21.5587 19.1213 22.1213C18.5587 22.6839 17.7956 23 17 23C16.2044 23 15.4413 22.6839 14.8787 22.1213C14.3161 21.5587 14 20.7956 14 20C14 19.2044 14.3161 18.4413 14.8787 17.8787C15.4413 17.3161 16.2044 17 17 17C17.7956 17 18.5587 17.3161 19.1213 17.8787C19.6839 18.4413 20 19.2044 20 20ZM15.5 20C15.5 20.3978 15.658 20.7794 15.9393 21.0607C16.2206 21.342 16.6022 21.5 17 21.5C17.3978 21.5 17.7794 21.342 18.0607 21.0607C18.342 20.7794 18.5 20.3978 18.5 20C18.5 19.6022 18.342 19.2206 18.0607 18.9393C17.7794 18.658 17.3978 18.5 17 18.5C16.6022 18.5 16.2206 18.658 15.9393 18.9393C15.658 19.2206 15.5 19.6022 15.5 20ZM20 20C20 20.7956 20.3161 21.5587 20.8787 22.1213C21.4413 22.6839 22.2044 23 23 23C23.7956 23 24.5587 22.6839 25.1213 22.1213C25.6839 21.5587 26 20.7956 26 20C26 19.2044 25.6839 18.4413 25.1213 17.8787C24.5587 17.3161 23.7956 17 23 17C22.2044 17 21.4413 17.3161 20.8787 17.8787C20.3161 18.4413 20 19.2044 20 20ZM24.5 20C24.5 20.3978 24.342 20.7794 24.0607 21.0607C23.7794 21.342 23.3978 21.5 23 21.5C22.6022 21.5 22.2206 21.342 21.9393 21.0607C21.658 20.7794 21.5 20.3978 21.5 20C21.5 19.6022 21.658 19.2206 21.9393 18.9393C22.2206 18.658 22.6022 18.5 23 18.5C23.3978 18.5 23.7794 18.658 24.0607 18.9393C24.342 19.2206 24.5 19.6022 24.5 20ZM20.765 24.8765C21.5441 24.7163 22.2589 24.3303 22.82 23.7665L23.87 24.8315C22.8392 25.8516 21.4501 26.4276 20 26.4365C19.2687 26.4295 18.5455 26.2818 17.87 26.0015C17.2018 25.7297 16.5949 25.3268 16.085 24.8165L17.135 23.7515C17.6041 24.2179 18.1799 24.5628 18.8125 24.7562C19.4451 24.9497 20.1153 24.9858 20.765 24.8615V24.8765Z" fill="black"/>
<path fill-rule="evenodd" clip-rule="evenodd" d="M22.25 10.2498C22.2502 10.7153 22.1061 11.1694 21.8375 11.5495C21.5688 11.9297 21.1889 12.2171 20.75 12.3723V12.4998H24.5C25.6935 12.4998 26.8381 12.9739 27.682 13.8178C28.5259 14.6617 29 15.8063 29 16.9998V18.4998L30.5 19.9998V22.9998L29 24.4998V25.9998C29 27.1933 28.5259 28.3379 27.682 29.1818C26.8381 30.0257 25.6935 30.4998 24.5 30.4998H15.5C14.3065 30.4998 13.1619 30.0257 12.318 29.1818C11.4741 28.3379 11 27.1933 11 25.9998V24.4998L9.5 22.9998V19.9998L11 18.4998V16.9998C11 15.8063 11.4741 14.6617 12.318 13.8178C13.1619 12.9739 14.3065 12.4998 15.5 12.4998H19.25V12.3723C18.8611 12.2348 18.5176 11.9931 18.2568 11.6735C17.996 11.354 17.8281 10.9689 17.7714 10.5604C17.7147 10.1519 17.7713 9.7356 17.9352 9.3571C18.099 8.9786 18.3638 8.65242 18.7005 8.4142C19.0372 8.17599 19.4329 8.0349 19.8443 8.00637C20.2558 7.97783 20.6672 8.06295 21.0335 8.2524C21.3999 8.44186 21.7071 8.72838 21.9217 9.08064C22.1362 9.4329 22.2498 9.83735 22.25 10.2498ZM15.5 13.9998C14.7044 13.9998 13.9413 14.3159 13.3787 14.8785C12.8161 15.4411 12.5 16.2041 12.5 16.9998V25.9998C12.5 26.7954 12.8161 27.5585 13.3787 28.1211C13.9413 28.6837 14.7044 28.9998 15.5 28.9998H24.5C25.2956 28.9998 26.0587 28.6837 26.6213 28.1211C27.1839 27.5585 27.5 26.7954 27.5 25.9998V16.9998C27.5 16.2041 27.1839 15.4411 26.6213 14.8785C26.0587 14.3159 25.2956 13.9998 24.5 13.9998H15.5Z" fill="black"/>
</svg>
