<svg width="800" height="800" viewBox="0 0 800 800" fill="none" xmlns="http://www.w3.org/2000/svg">
<path d="M458.831 351.844C454.62 347.228 456.431 340.206 463.296 338.722C490.238 337.705 506.757 350.328 516.995 367.816C517.923 369.402 518.989 371.074 519.988 372.654C521.078 376.208 518.241 377.789 515.638 376.903C503.069 361.168 487.977 357.942 479.298 356.262C474.626 355.358 469.033 356.033 465.697 355.453C461.876 354.79 459.604 352.691 458.831 351.844Z" fill="#150C0C"/>
<path d="M342.939 351.844C347.15 347.228 345.338 340.206 338.473 338.722C311.531 337.705 295.012 350.328 284.774 367.816C283.846 369.402 282.781 371.074 281.781 372.654C280.692 376.208 283.528 377.789 286.132 376.903C298.701 361.168 313.792 357.942 322.471 356.262C327.143 355.358 332.737 356.033 336.072 355.453C339.894 354.79 342.166 352.691 342.939 351.844Z" fill="#150C0C"/>
</svg>
