<svg width="800" height="800" viewBox="0 0 800 800" fill="none" xmlns="http://www.w3.org/2000/svg">
<path d="M458.318 359.582C453.555 356.656 453.58 350.635 459.32 348.126C482.93 342.161 500.382 349.209 513.37 361.387C514.548 362.491 515.866 363.639 517.106 364.726C518.868 367.389 516.713 369.208 514.211 368.99C499.554 358.673 485.477 358.947 477.42 359.246C473.083 359.407 468.286 361.02 465.204 361.189C461.674 361.382 459.192 360.119 458.318 359.582Z" fill="#150C0C"/>
<path d="M343.928 359.582C348.691 356.656 348.666 350.635 342.926 348.126C319.316 342.161 301.864 349.209 288.876 361.387C287.698 362.491 286.38 363.639 285.14 364.726C283.378 367.389 285.533 369.208 288.035 368.99C302.692 358.673 316.769 358.947 324.826 359.246C329.163 359.407 333.96 361.02 337.042 361.189C340.572 361.382 343.054 360.119 343.928 359.582Z" fill="#150C0C"/>
</svg>
