<svg width="800" height="800" viewBox="0 0 800 800" fill="none" xmlns="http://www.w3.org/2000/svg">
<path d="M358.748 450.675C358.744 450.675 358.767 450.656 358.826 450.621C358.781 450.658 358.751 450.676 358.748 450.675ZM360.11 450.109C360.352 450.035 360.627 449.957 360.941 449.877C363.098 449.325 366.319 448.835 370.354 448.434C378.38 447.635 389.153 447.23 399.976 447.23C410.8 447.23 421.573 447.635 429.599 448.434C433.634 448.835 436.855 449.325 439.012 449.877C439.365 449.967 439.67 450.054 439.933 450.137C439.406 450.86 438.559 451.737 437.362 452.725C434.959 454.708 431.481 456.867 427.389 458.869C419.154 462.899 409.052 466 401.212 466C393.347 466 382.608 462.885 373.726 458.834C369.313 456.822 365.519 454.65 362.881 452.648C361.61 451.684 360.694 450.824 360.11 450.109ZM441.205 450.675C441.202 450.676 441.172 450.658 441.127 450.621C441.186 450.656 441.208 450.675 441.205 450.675Z" fill="#F9ECEC" stroke="#150C0C" stroke-width="6"/>
<path d="M456.498 455.976C456.498 455.976 449.7 453.948 445.677 449.265C441.654 444.583 441.877 437 441.877 437" stroke="#150C0C" stroke-width="2"/>
<path d="M342.967 455.976C342.967 455.976 349.765 453.948 353.788 449.265C357.811 444.583 357.588 437 357.588 437" stroke="#150C0C" stroke-width="2"/>
</svg>
