<svg width="800" height="800" viewBox="0 0 800 800" fill="none" xmlns="http://www.w3.org/2000/svg">
<path d="M411.095 439.611C414.569 443.358 419.291 445.718 423.664 447.411C425.873 448.267 428.071 448.98 430.055 449.612C430.292 449.688 430.525 449.762 430.754 449.835C432.333 450.337 433.727 450.78 434.936 451.222C434.632 451.551 434.195 451.922 433.633 452.284C430.878 454.059 428.387 456.351 426.029 458.626C425.527 459.11 425.032 459.593 424.539 460.073C422.657 461.906 420.815 463.702 418.801 465.39C413.837 469.552 408.17 472.764 400 472.764C391.765 472.764 385.892 469.589 380.792 465.466C378.502 463.615 376.413 461.612 374.297 459.583C374.014 459.312 373.731 459.04 373.447 458.768C371.089 456.514 368.639 454.227 366.01 452.427C365.475 452.061 365.016 451.648 364.674 451.25C364.556 451.113 364.461 450.988 364.384 450.876C365.627 450.412 367.169 449.983 369.021 449.49C369.246 449.431 369.474 449.37 369.706 449.309C371.529 448.826 373.565 448.286 375.61 447.624C380.191 446.138 385.277 443.898 388.96 439.673C389.049 439.571 389.135 439.489 389.211 439.426C390.214 439.917 391.329 440.68 392.647 441.583C392.978 441.81 393.323 442.045 393.681 442.288C394.572 442.89 395.555 443.53 396.517 444.02C397.419 444.48 398.658 445 400 445C401.388 445 402.644 444.445 403.546 443.96C404.503 443.447 405.475 442.778 406.344 442.166C406.518 442.044 406.689 441.923 406.856 441.805C408.395 440.718 409.653 439.829 410.79 439.335C410.793 439.337 410.797 439.34 410.8 439.343C410.888 439.407 410.989 439.497 411.095 439.611L413.286 437.579L411.095 439.611ZM435.635 451.524C435.635 451.524 435.634 451.523 435.632 451.521C435.634 451.523 435.635 451.524 435.635 451.524Z" fill="#EFBBBB" stroke="#150C0C" stroke-width="6"/>
<path d="M366 452.5C383.105 460.833 414.395 460.833 431.5 452.5" stroke="#150C0C" stroke-width="6" stroke-linecap="round"/>
</svg>
