<svg width="800" height="800" viewBox="0 0 800 800" fill="none" xmlns="http://www.w3.org/2000/svg">
<path d="M411.095 445.611C414.569 449.358 419.291 451.718 423.664 453.411C425.873 454.267 428.071 454.98 430.055 455.612C430.292 455.688 430.525 455.762 430.754 455.835C432.333 456.337 433.727 456.78 434.936 457.222C434.632 457.551 434.195 457.922 433.633 458.284C430.878 460.059 428.387 462.351 426.029 464.626C425.527 465.11 425.032 465.593 424.539 466.073C422.657 467.906 420.815 469.702 418.801 471.39C413.837 475.552 408.17 478.764 400 478.764C391.765 478.764 385.892 475.589 380.792 471.466C378.502 469.615 376.413 467.612 374.297 465.583C374.014 465.312 373.731 465.04 373.447 464.768C371.089 462.514 368.639 460.227 366.01 458.427C365.475 458.061 365.016 457.648 364.674 457.25C364.556 457.113 364.461 456.988 364.384 456.876C365.627 456.412 367.169 455.983 369.021 455.49C369.246 455.431 369.474 455.37 369.706 455.309C371.529 454.826 373.565 454.286 375.61 453.624C380.191 452.138 385.277 449.898 388.96 445.673C389.049 445.571 389.135 445.489 389.211 445.426C390.214 445.917 391.329 446.68 392.647 447.583C392.978 447.81 393.323 448.045 393.681 448.288C394.572 448.89 395.555 449.53 396.517 450.02C397.419 450.48 398.658 451 400 451C401.388 451 402.644 450.445 403.546 449.96C404.503 449.447 405.475 448.778 406.344 448.166C406.518 448.044 406.689 447.923 406.856 447.805C408.395 446.718 409.653 445.829 410.79 445.335C410.793 445.337 410.797 445.34 410.8 445.343C410.888 445.407 410.989 445.497 411.095 445.611L413.286 443.579L411.095 445.611ZM435.635 457.524C435.635 457.524 435.634 457.523 435.632 457.521C435.634 457.523 435.635 457.524 435.635 457.524Z" fill="#EFBBBB" stroke="#150C0C" stroke-width="6"/>
<path d="M366 458.5C383.105 466.833 414.395 466.833 431.5 458.5" stroke="#150C0C" stroke-width="6" stroke-linecap="round"/>
</svg>
