<svg width="800" height="800" viewBox="0 0 800 800" fill="none" xmlns="http://www.w3.org/2000/svg">
<path d="M365.296 443.586C374.159 441.147 387.023 439.966 399.931 440.001C412.841 440.035 425.319 441.284 433.396 443.465C434.454 443.751 434.906 444.476 434.948 445.032C435.514 452.475 431.379 462.268 424.202 470.412C417.045 478.534 407.759 484 399.138 484C390.834 484 381.832 477.918 374.736 469.193C371.268 464.929 368.445 460.252 366.561 455.83C364.65 451.343 363.836 447.426 364.027 444.596C364.035 444.484 364.073 444.348 364.25 444.163C364.45 443.954 364.804 443.721 365.296 443.586Z" fill="#F9ECEC" stroke="#150C0C" stroke-width="8"/>
</svg>
