<svg width="800" height="800" viewBox="0 0 800 800" fill="none" xmlns="http://www.w3.org/2000/svg">
<path d="M411.039 445.578C414.227 449.156 418.511 451.914 422.608 454.143C424.674 455.267 426.748 456.285 428.667 457.213C428.989 457.369 429.305 457.521 429.616 457.671C431.184 458.428 432.611 459.116 433.882 459.781C433.887 459.783 433.892 459.786 433.897 459.788C433.476 460.072 432.881 460.376 432.114 460.651C428.84 461.825 426.464 463.617 424.439 465.489C423.571 466.291 422.74 467.135 421.956 467.931C421.846 468.043 421.737 468.154 421.629 468.263C420.729 469.175 419.867 470.034 418.936 470.853C415.44 473.927 410.634 476.764 400 476.764C389.456 476.764 384.651 473.891 381.157 470.782C380.227 469.955 379.367 469.088 378.472 468.17C378.361 468.056 378.248 467.94 378.134 467.824C377.359 467.027 376.538 466.183 375.683 465.383C373.681 463.508 371.331 461.711 368.097 460.555C367.254 460.254 366.564 459.891 366.066 459.536C365.977 459.473 365.899 459.413 365.829 459.357C367.262 458.643 368.928 457.93 370.811 457.123L370.957 457.06C372.883 456.236 374.995 455.327 377.104 454.292C381.292 452.235 385.729 449.553 389.013 445.64C389.084 445.555 389.154 445.485 389.218 445.429C390.219 445.92 391.332 446.682 392.647 447.583C392.978 447.81 393.323 448.045 393.681 448.288C394.572 448.89 395.555 449.53 396.517 450.02C397.419 450.48 398.658 451 400 451C401.388 451 402.644 450.445 403.546 449.96C404.503 449.447 405.475 448.778 406.344 448.166C406.518 448.044 406.689 447.923 406.856 447.805C408.392 446.72 409.649 445.832 410.784 445.337C410.861 445.396 410.948 445.477 411.039 445.578Z" fill="#EFBBBB" stroke="#150C0C" stroke-width="6"/>
<path d="M367 460C384.105 464.333 414.895 464.333 432 460" stroke="#150C0C" stroke-width="6" stroke-linecap="round"/>
</svg>
