<svg width="800" height="800" viewBox="0 0 800 800" fill="none" xmlns="http://www.w3.org/2000/svg">
<path d="M458.692 439.6C457.64 438.197 456.043 437.392 454.838 436.895C453.487 436.339 451.865 435.874 450.097 435.474C446.546 434.67 441.945 434.026 436.73 433.519C426.27 432.502 412.914 432 399.614 432C386.313 432 372.957 432.502 362.497 433.519C357.282 434.026 352.681 434.67 349.13 435.474C347.362 435.874 345.74 436.339 344.389 436.895C343.184 437.392 341.587 438.197 340.535 439.6C338.848 441.849 338.761 444.497 339.287 446.749C339.804 448.964 340.982 451.188 342.457 453.284C345.429 457.506 350.205 462.046 356.017 466.198C367.627 474.49 384.298 481.886 401.225 481.886C418.185 481.886 434.087 474.466 444.937 466.112C450.365 461.933 454.742 457.36 457.397 453.097C458.719 450.976 459.734 448.741 460.123 446.532C460.517 444.291 460.305 441.75 458.692 439.6Z" fill="#F9ECEC" stroke="#150C0C" stroke-width="8"/>
</svg>
