<svg width="800" height="800" viewBox="0 0 800 800" fill="none" xmlns="http://www.w3.org/2000/svg">
<path d="M458.692 449.6C457.64 448.197 456.043 447.392 454.838 446.895C453.487 446.339 451.865 445.874 450.097 445.474C446.546 444.67 441.945 444.026 436.73 443.519C426.27 442.502 412.914 442 399.614 442C386.313 442 372.957 442.502 362.497 443.519C357.282 444.026 352.681 444.67 349.13 445.474C347.362 445.874 345.74 446.339 344.389 446.895C343.184 447.392 341.587 448.197 340.535 449.6C338.848 451.849 338.761 454.497 339.287 456.749C339.804 458.964 340.982 461.188 342.457 463.284C345.429 467.506 350.205 472.046 356.017 476.198C367.627 484.49 384.298 491.886 401.225 491.886C418.185 491.886 434.087 484.466 444.937 476.112C450.365 471.933 454.742 467.36 457.397 463.097C458.719 460.976 459.734 458.741 460.123 456.532C460.517 454.291 460.305 451.75 458.692 449.6Z" fill="#F9ECEC" stroke="#150C0C" stroke-width="8"/>
</svg>
