<svg width="800" height="800" viewBox="0 0 800 800" fill="none" xmlns="http://www.w3.org/2000/svg">
<path d="M347.077 444.929C347.032 444.737 347.012 444.593 347.003 444.487C347.111 444.433 347.253 444.368 347.437 444.292C348.209 443.974 349.351 443.626 350.896 443.276C353.973 442.58 358.197 441.974 363.271 441.481C373.392 440.498 386.474 440 399.614 440C412.753 440 425.836 440.498 435.956 441.481C441.03 441.974 445.254 442.58 448.331 443.276C449.876 443.626 451.018 443.974 451.791 444.292C452.017 444.385 452.18 444.463 452.294 444.522C452.302 444.649 452.296 444.848 452.244 445.146C452.095 445.993 451.615 447.249 450.607 448.867C448.604 452.083 444.983 455.981 440.057 459.773C430.198 467.363 415.967 473.886 401.225 473.886C386.452 473.886 371.378 467.339 360.667 459.688C355.32 455.868 351.292 451.936 348.999 448.68C347.843 447.037 347.274 445.77 347.077 444.929ZM452.258 444.339C452.258 444.338 452.263 444.346 452.269 444.364C452.26 444.348 452.257 444.339 452.258 444.339ZM347.004 444.281C347.007 444.256 347.011 444.245 347.013 444.246C347.014 444.247 347.012 444.259 347.004 444.281Z" fill="#F9ECEC" stroke="#150C0C" stroke-width="8"/>
</svg>
