<svg width="37" height="36" viewBox="0 0 37 36" fill="none" xmlns="http://www.w3.org/2000/svg">
<path fill-rule="evenodd" clip-rule="evenodd" d="M29.8974 4.20447C29.8436 3.97094 29.7003 3.76783 29.4984 3.63881C29.2964 3.50978 29.0519 3.46514 28.8174 3.51447L11.4024 7.33947C11.027 7.42317 10.6927 7.63535 10.4572 7.93936C10.2216 8.24337 10.0997 8.62011 10.1124 9.00447V24.6045C10.1146 24.9199 10.0062 25.2261 9.80622 25.4699C9.6062 25.7138 9.32711 25.8799 9.01739 25.9395L6.51239 26.4645C5.77948 26.65 5.13612 27.0895 4.69669 27.7047C4.25725 28.3199 4.05022 29.071 4.11239 29.8245C4.14552 30.6095 4.47223 31.3535 5.02782 31.909C5.58341 32.4646 6.32737 32.7913 7.11239 32.8245C7.30239 32.8455 7.49239 32.8455 7.68239 32.8245C7.78739 32.8245 9.36239 32.4645 9.63239 32.3445C10.3026 32.0229 10.8704 31.5218 11.2729 30.8969C11.6754 30.2719 11.8968 29.5476 11.9124 28.8045V9.30447L28.0974 5.74947V20.6145C28.0967 20.9291 27.9873 21.2338 27.7878 21.4771C27.5882 21.7204 27.3108 21.8872 27.0024 21.9495L24.3924 22.5045C23.6706 22.7019 23.041 23.1463 22.6134 23.7604C22.1858 24.3744 21.9872 25.119 22.0524 25.8645C22.0889 26.6484 22.4167 27.3904 22.9716 27.9453C23.5265 28.5002 24.2685 28.828 25.0524 28.8645C25.2474 28.8875 25.4424 28.8875 25.6374 28.8645C26.3014 28.7335 26.9564 28.5685 27.6024 28.3695C28.2725 28.0569 28.8431 27.565 29.2508 26.9481C29.6585 26.3312 29.8875 25.6135 29.9124 24.8745V4.39947C29.9145 4.33412 29.9095 4.26873 29.8974 4.20447ZM28.1124 23.4645V24.8145C28.0875 25.1972 27.9638 25.5669 27.7535 25.8876C27.5432 26.2083 27.2534 26.4691 26.9124 26.6445C26.6124 26.7495 25.5174 26.9895 25.2774 27.0345H25.0524C24.7273 26.995 24.4272 26.8399 24.2069 26.5976C23.9866 26.3553 23.8608 26.0419 23.8524 25.7145C23.8266 25.4017 23.8996 25.0888 24.0611 24.8197C24.2225 24.5506 24.4643 24.3389 24.7524 24.2145L27.3624 23.6895C27.6214 23.6445 27.8714 23.5695 28.1124 23.4645ZM10.1124 27.4545V28.8045C10.0674 29.5845 9.61739 30.2835 8.92739 30.6495C8.64239 30.7395 7.54739 30.9795 7.32239 31.0395C7.14239 31.054 6.96134 31.031 6.79068 30.972C6.62003 30.9129 6.46349 30.8191 6.33096 30.6964C6.19843 30.5738 6.0928 30.425 6.02075 30.2594C5.9487 30.0938 5.9118 29.9151 5.91239 29.7345C5.88546 29.4234 5.95625 29.1118 6.11489 28.8429C6.27354 28.574 6.51212 28.3613 6.79739 28.2345L9.37739 27.7245C9.63339 27.6645 9.87839 27.5745 10.1124 27.4545Z" fill="thisColor"/>
</svg>
