<svg width="37" height="36" viewBox="0 0 37 36" fill="none" xmlns="http://www.w3.org/2000/svg">
<path d="M24.6875 4.5C27.1875 4.5 29.2815 5.425 30.9695 7.275C32.6575 9.125 33.501 11.325 33.5 13.875C33.5 14.325 33.475 14.769 33.425 15.207C33.375 15.645 33.2875 16.076 33.1625 16.5H23.7875L21.2375 12.675C21.1125 12.475 20.9375 12.3125 20.7125 12.1875C20.4875 12.0625 20.25 12 20 12C19.675 12 19.3815 12.1 19.1195 12.3C18.8575 12.5 18.676 12.75 18.575 13.05L16.55 19.125L15.2375 17.175C15.1125 16.975 14.9375 16.8125 14.7125 16.6875C14.4875 16.5625 14.25 16.5 14 16.5H3.8375C3.7125 16.075 3.625 15.644 3.575 15.207C3.525 14.77 3.5 14.3385 3.5 13.9125C3.5 11.3375 4.3375 9.125 6.0125 7.275C7.6875 5.425 9.775 4.5 12.275 4.5C13.475 4.5 14.6065 4.7375 15.6695 5.2125C16.7325 5.6875 17.676 6.35 18.5 7.2C19.3 6.35 20.2315 5.6875 21.2945 5.2125C22.3575 4.7375 23.4885 4.5 24.6875 4.5ZM18.5 31.5C18.05 31.5 17.619 31.419 17.207 31.257C16.795 31.095 16.426 30.851 16.1 30.525L6.05 20.4375C5.9 20.2875 5.7625 20.1375 5.6375 19.9875C5.5125 19.8375 5.3875 19.675 5.2625 19.5H13.175L15.725 23.325C15.85 23.525 16.025 23.6875 16.25 23.8125C16.475 23.9375 16.7125 24 16.9625 24C17.2875 24 17.5875 23.9 17.8625 23.7C18.1375 23.5 18.325 23.25 18.425 22.95L20.45 16.875L21.725 18.825C21.875 19.025 22.0625 19.1875 22.2875 19.3125C22.5125 19.4375 22.75 19.5 23 19.5H31.7L31.325 19.95L30.95 20.4L20.8625 30.525C20.5375 30.85 20.175 31.094 19.775 31.257C19.375 31.42 18.95 31.501 18.5 31.5Z" fill="#B5B5B5"/>
</svg>
