<svg width="800" height="800" viewBox="0 0 800 800" fill="none" xmlns="http://www.w3.org/2000/svg">
<mask id="path-1-outside-1_1102_2101" maskUnits="userSpaceOnUse" x="218" y="239" width="359" height="458" fill="black">
<rect fill="white" x="218" y="239" width="359" height="458"/>
<path fill-rule="evenodd" clip-rule="evenodd" d="M371.463 247C292.298 247 226 324.371 226 507.983C226 533.477 226 623.237 308.106 675.061C308.705 675.336 309.336 675.667 310 676.056C339 693.056 460.5 691.557 484 677.057C484.809 676.558 485.558 676.183 486.253 675.925C568.145 624.08 568.145 534.455 568.145 508.983C568.145 325.371 501.847 248 422.682 248C416.301 248 410.223 250.077 404.445 253.953C471.654 257.256 525.672 299.594 525.672 354.24C525.672 366.581 526.431 376.09 527.323 387.274L527.324 387.282L527.325 387.295C527.519 389.729 527.72 392.243 527.92 394.883L527.921 394.884C529.035 409.554 530.145 424.171 530.145 438.882C530.145 479.06 499.496 512.819 463.21 532.663C441.673 544.101 418.319 550.642 398.298 550.744C398.258 550.745 398.217 550.745 398.175 550.745L398 550.745L397.825 550.745C397.805 550.745 397.785 550.745 397.765 550.745C397.744 550.745 397.723 550.744 397.702 550.744C343.2 550.467 264 502.47 264 437.882C264 423.171 265.11 408.553 266.224 393.883C266.425 391.239 266.626 388.721 266.82 386.282L266.821 386.276L266.821 386.274C267.714 375.09 268.473 365.581 268.473 353.24C268.473 298.594 322.491 256.256 389.699 252.953C383.921 249.077 377.844 247 371.463 247Z"/>
</mask>
<path fill-rule="evenodd" clip-rule="evenodd" d="M371.463 247C292.298 247 226 324.371 226 507.983C226 533.477 226 623.237 308.106 675.061C308.705 675.336 309.336 675.667 310 676.056C339 693.056 460.5 691.557 484 677.057C484.809 676.558 485.558 676.183 486.253 675.925C568.145 624.08 568.145 534.455 568.145 508.983C568.145 325.371 501.847 248 422.682 248C416.301 248 410.223 250.077 404.445 253.953C471.654 257.256 525.672 299.594 525.672 354.24C525.672 366.581 526.431 376.09 527.323 387.274L527.324 387.282L527.325 387.295C527.519 389.729 527.72 392.243 527.92 394.883L527.921 394.884C529.035 409.554 530.145 424.171 530.145 438.882C530.145 479.06 499.496 512.819 463.21 532.663C441.673 544.101 418.319 550.642 398.298 550.744C398.258 550.745 398.217 550.745 398.175 550.745L398 550.745L397.825 550.745C397.805 550.745 397.785 550.745 397.765 550.745C397.744 550.745 397.723 550.744 397.702 550.744C343.2 550.467 264 502.47 264 437.882C264 423.171 265.11 408.553 266.224 393.883C266.425 391.239 266.626 388.721 266.82 386.282L266.821 386.276L266.821 386.274C267.714 375.09 268.473 365.581 268.473 353.24C268.473 298.594 322.491 256.256 389.699 252.953C383.921 249.077 377.844 247 371.463 247Z" fill="currentColor"/>
<path d="M371.463 247L371.463 239L371.463 239L371.463 247ZM308.106 675.061L303.836 681.826L304.283 682.108L304.764 682.329L308.106 675.061ZM310 676.056L305.954 682.958L305.954 682.958L310 676.056ZM484 677.057L488.201 683.865L488.201 683.865L484 677.057ZM486.253 675.925L489.042 683.423L489.825 683.131L490.532 682.684L486.253 675.925ZM422.682 248L422.682 256L422.682 248ZM404.445 253.953L399.989 247.309L379.94 260.758L404.053 261.943L404.445 253.953ZM527.323 387.274L519.349 387.911L519.35 387.931L519.352 387.951L527.323 387.274ZM527.324 387.282L535.297 386.626L535.296 386.616L535.295 386.605L527.324 387.282ZM527.325 387.295L535.3 386.659L535.299 386.649L535.298 386.64L527.325 387.295ZM527.92 394.883L535.899 394.292L535.898 394.285L535.897 394.277L527.92 394.883ZM527.921 394.884L519.942 395.475L519.943 395.483L519.943 395.49L527.921 394.884ZM463.21 532.663L466.962 539.728L467.005 539.705L467.048 539.682L463.21 532.663ZM398.298 550.744L398.258 542.744L398.201 542.744L398.143 542.745L398.298 550.744ZM398.175 550.745L398.168 558.745H398.175V550.745ZM398 550.745L398.007 542.745L397.993 542.745L398 550.745ZM397.825 550.745L397.825 558.745L397.832 558.745L397.825 550.745ZM397.765 550.745L397.851 542.745L397.846 542.745L397.765 550.745ZM397.702 550.744L397.851 542.745L397.797 542.744L397.742 542.744L397.702 550.744ZM266.224 393.883L258.247 393.277L258.247 393.277L266.224 393.883ZM266.82 386.282L274.795 386.919L274.795 386.915L266.82 386.282ZM266.821 386.276L258.847 385.626L258.847 385.635L258.846 385.643L266.821 386.276ZM266.821 386.274L274.795 386.924L274.796 386.911L266.821 386.274ZM389.699 252.953L390.092 260.943L414.204 259.758L394.156 246.309L389.699 252.953ZM234 507.983C234 416.97 250.459 353.413 275.826 312.881C300.981 272.687 334.904 255 371.463 255L371.463 239C328.856 239 290.048 259.998 262.263 304.393C234.69 348.45 218 415.384 218 507.983H234ZM312.376 668.295C234.23 618.971 234 533.502 234 507.983H218C218 533.452 217.77 627.502 303.836 681.826L312.376 668.295ZM304.764 682.329C305.091 682.48 305.487 682.684 305.954 682.958L314.046 669.155C313.184 668.65 312.319 668.192 311.449 667.792L304.764 682.329ZM305.954 682.958C314.74 688.108 329.234 691.331 345.103 693.359C361.362 695.437 380.358 696.401 399.076 696.369C417.795 696.337 436.432 695.31 451.979 693.345C459.749 692.363 466.864 691.133 472.891 689.639C478.769 688.181 484.198 686.335 488.201 683.865L479.799 670.248C477.927 671.404 474.418 672.776 469.04 674.109C463.812 675.406 457.353 676.539 449.974 677.471C435.225 679.335 417.267 680.338 399.049 680.369C380.829 680.4 362.544 679.457 347.131 677.488C331.328 675.469 319.76 672.504 314.046 669.155L305.954 682.958ZM488.201 683.865C488.663 683.579 488.939 683.461 489.042 683.423L483.464 668.427C482.177 668.905 480.954 669.536 479.799 670.248L488.201 683.865ZM560.145 508.983C560.145 534.479 559.914 619.822 481.974 669.166L490.532 682.684C576.375 628.338 576.145 534.43 576.145 508.983H560.145ZM422.682 256C459.24 256 493.163 273.687 518.319 313.881C543.686 354.413 560.145 417.97 560.145 508.983H576.145C576.145 416.384 559.454 349.45 531.881 305.393C504.097 260.998 465.289 240 422.682 240L422.682 256ZM408.902 260.596C413.588 257.453 418.14 256 422.682 256L422.682 240C414.462 240 406.859 242.701 399.989 247.309L408.902 260.596ZM533.672 354.24C533.672 293.59 474.322 249.377 404.838 245.962L404.053 261.943C468.985 265.134 517.672 305.599 517.672 354.24H533.672ZM535.298 386.638C534.405 375.449 533.672 366.227 533.672 354.24H517.672C517.672 366.935 518.457 376.731 519.349 387.911L535.298 386.638ZM535.295 386.605L535.295 386.598L519.352 387.951L519.353 387.958L535.295 386.605ZM535.298 386.64L535.297 386.626L519.351 387.937L519.352 387.95L535.298 386.64ZM535.897 394.277C535.696 391.62 535.494 389.091 535.3 386.659L519.351 387.931C519.545 390.368 519.744 392.867 519.943 395.489L535.897 394.277ZM535.899 394.293L535.899 394.292L519.942 395.474L519.942 395.475L535.899 394.293ZM538.145 438.882C538.145 423.818 537.008 408.898 535.898 394.278L519.943 395.49C521.061 410.21 522.145 424.525 522.145 438.882H538.145ZM467.048 539.682C504.492 519.204 538.145 483.299 538.145 438.882H522.145C522.145 474.822 494.499 506.433 459.371 525.644L467.048 539.682ZM398.339 558.744C419.919 558.634 444.541 551.636 466.962 539.728L459.457 525.598C438.805 536.566 416.719 542.65 398.258 542.744L398.339 558.744ZM398.175 558.745C398.272 558.745 398.365 558.744 398.454 558.742L398.143 542.745C398.15 542.745 398.161 542.745 398.175 542.745V558.745ZM397.993 558.745L398.168 558.745L398.182 542.745L398.007 542.745L397.993 558.745ZM397.832 558.745L398.007 558.745L397.993 542.745L397.818 542.745L397.832 558.745ZM397.679 558.744C397.731 558.745 397.78 558.745 397.825 558.745V542.745C397.829 542.745 397.838 542.745 397.851 542.745L397.679 558.744ZM397.552 558.742C397.596 558.743 397.64 558.744 397.685 558.744L397.846 542.745C397.847 542.745 397.849 542.745 397.851 542.745L397.552 558.742ZM256 437.882C256 473.611 277.855 503.857 305.59 524.812C333.336 545.776 368.4 558.595 397.661 558.744L397.742 542.744C372.502 542.616 340.715 531.298 315.235 512.046C289.745 492.787 272 466.74 272 437.882H256ZM258.247 393.277C257.137 407.898 256 422.817 256 437.882H272C272 423.525 273.083 409.209 274.201 394.489L258.247 393.277ZM258.846 385.646C258.651 388.082 258.449 390.615 258.247 393.277L274.201 394.489C274.401 391.862 274.6 389.359 274.795 386.919L258.846 385.646ZM258.846 385.643L258.846 385.649L274.795 386.915L274.796 386.909L258.846 385.643ZM258.848 385.624L258.847 385.626L274.794 386.926L274.795 386.924L258.848 385.624ZM260.473 353.24C260.473 365.227 259.739 374.449 258.846 385.638L274.796 386.911C275.688 375.731 276.473 365.935 276.473 353.24H260.473ZM389.306 244.962C319.822 248.377 260.473 292.59 260.473 353.24H276.473C276.473 304.599 325.16 264.134 390.092 260.943L389.306 244.962ZM371.463 255C376.004 255 380.556 256.453 385.242 259.596L394.156 246.309C387.286 241.701 379.683 239 371.463 239V255Z" fill="#150C0C" mask="url(#path-1-outside-1_1102_2101)"/>
<path d="M316 525C316 588.466 333.217 646.225 361.39 688.733C328.82 678.2 299.824 652.371 278.286 616.116C254.492 576.062 240 523.573 240 466C240 338.884 310.202 251 394.5 251C435.52 251 474.376 279.158 496.973 303.415C472.778 339.683 441.157 349.373 411.395 357.475C410.157 357.812 408.92 358.146 407.685 358.48C378.819 366.285 350.959 373.817 337.888 406.515C323.958 441.359 316 481.846 316 525Z" fill="currentColor" stroke="#150C0C" stroke-width="8"/>
</svg>
