<svg width="800" height="800" viewBox="0 0 800 800" fill="none" xmlns="http://www.w3.org/2000/svg">
<mask id="path-1-outside-1_880_1747" maskUnits="userSpaceOnUse" x="246" y="205" width="309" height="532" fill="black">
<rect fill="white" x="246" y="205" width="309" height="532"/>
<path fill-rule="evenodd" clip-rule="evenodd" d="M417 500.081C411.584 500.688 406.078 501 400.5 501C394.922 501 389.416 500.688 384 500.081V729H254V354.5V349H254.073C256.17 270.86 303.268 213 400.5 213C497.732 213 544.83 270.86 546.927 349H547V354.5V729H417V500.081Z"/>
</mask>
<path fill-rule="evenodd" clip-rule="evenodd" d="M417 500.081C411.584 500.688 406.078 501 400.5 501C394.922 501 389.416 500.688 384 500.081V729H254V354.5V349H254.073C256.17 270.86 303.268 213 400.5 213C497.732 213 544.83 270.86 546.927 349H547V354.5V729H417V500.081Z" fill="currentColor"/>
<path d="M417 500.081H425V491.134L416.109 492.131L417 500.081ZM384 500.081L384.891 492.131L376 491.134V500.081H384ZM384 729V737H392V729H384ZM254 729H246V737H254V729ZM254 349V341H246V349H254ZM254.073 349V357H261.862L262.07 349.215L254.073 349ZM546.927 349L538.93 349.215L539.138 357H546.927V349ZM547 349H555V341H547V349ZM547 729V737H555V729H547ZM417 729H409V737H417V729ZM400.5 509C406.377 509 412.18 508.672 417.891 508.031L416.109 492.131C410.988 492.705 405.78 493 400.5 493V509ZM383.109 508.031C388.82 508.672 394.623 509 400.5 509V493C395.22 493 390.012 492.705 384.891 492.131L383.109 508.031ZM392 729V500.081H376V729H392ZM254 737H384V721H254V737ZM246 354.5V729H262V354.5H246ZM246 349V354.5H262V349H246ZM254.073 341H254V357H254.073V341ZM400.5 205C350.265 205 311.963 219.987 285.949 246.045C259.984 272.055 247.165 308.19 246.076 348.785L262.07 349.215C263.078 311.67 274.856 279.805 297.272 257.349C319.64 234.943 353.503 221 400.5 221V205ZM554.924 348.785C553.835 308.19 541.016 272.055 515.051 246.045C489.037 219.987 450.735 205 400.5 205V221C447.497 221 481.36 234.943 503.728 257.349C526.144 279.805 537.922 311.67 538.93 349.215L554.924 348.785ZM546.927 357H547V341H546.927V357ZM539 349V354.5H555V349H539ZM539 354.5V729H555V354.5H539ZM547 721H417V737H547V721ZM425 729V500.081H409V729H425Z" fill="#150C0C" mask="url(#path-1-outside-1_880_1747)"/>
</svg>
