<svg width="800" height="800" viewBox="0 0 800 800" fill="none" xmlns="http://www.w3.org/2000/svg">
<mask id="path-1-outside-1_977_2672" maskUnits="userSpaceOnUse" x="242" y="205" width="309" height="532" fill="black">
<rect fill="white" x="242" y="205" width="309" height="532"/>
<path fill-rule="evenodd" clip-rule="evenodd" d="M380 549.561C327.385 541.118 263 496.371 263 438.137C263 433.415 263.114 428.704 263.306 423.997C263.205 423.999 263.102 424 263 424C257.89 424 253.276 421.16 250 416.6V729H380V549.561ZM266.594 376.478C265.433 376.165 264.231 376 263 376C257.89 376 253.276 378.84 250 383.4V354.5V349H250.073C252.17 270.86 299.268 213 396.5 213C493.732 213 540.83 270.86 542.927 349H543V354.5V383.4C539.724 378.84 535.11 376 530 376C529.114 376 528.242 376.085 527.39 376.25C526.881 369.029 526.527 361.922 526.527 353.495C526.527 296.664 468.101 253.143 397.175 253L397 253C396.942 253 396.883 253 396.825 253C325.899 253.143 267.473 296.664 267.473 353.495C267.473 362.011 267.111 369.178 266.594 376.478ZM530.693 423.983C535.527 423.739 539.872 420.953 543 416.6V729H413V549.718C465.795 541.686 531 496.741 531 438.137C531 433.411 530.885 428.694 530.693 423.983Z"/>
</mask>
<path fill-rule="evenodd" clip-rule="evenodd" d="M380 549.561C327.385 541.118 263 496.371 263 438.137C263 433.415 263.114 428.704 263.306 423.997C263.205 423.999 263.102 424 263 424C257.89 424 253.276 421.16 250 416.6V729H380V549.561ZM266.594 376.478C265.433 376.165 264.231 376 263 376C257.89 376 253.276 378.84 250 383.4V354.5V349H250.073C252.17 270.86 299.268 213 396.5 213C493.732 213 540.83 270.86 542.927 349H543V354.5V383.4C539.724 378.84 535.11 376 530 376C529.114 376 528.242 376.085 527.39 376.25C526.881 369.029 526.527 361.922 526.527 353.495C526.527 296.664 468.101 253.143 397.175 253L397 253C396.942 253 396.883 253 396.825 253C325.899 253.143 267.473 296.664 267.473 353.495C267.473 362.011 267.111 369.178 266.594 376.478ZM530.693 423.983C535.527 423.739 539.872 420.953 543 416.6V729H413V549.718C465.795 541.686 531 496.741 531 438.137C531 433.411 530.885 428.694 530.693 423.983Z" fill="currentColor"/>
<path d="M380 549.561H388V542.743L381.268 541.662L380 549.561ZM263.306 423.997L271.3 424.323L271.647 415.809L263.128 415.999L263.306 423.997ZM250 416.6L256.497 411.932L242 391.754V416.6H250ZM250 729H242V737H250V729ZM380 729V737H388V729H380ZM266.594 376.478L264.507 384.202L273.887 386.736L274.574 377.044L266.594 376.478ZM250 383.4H242V408.246L256.497 388.068L250 383.4ZM250 349V341H242V349H250ZM250.073 349V357H257.862L258.07 349.215L250.073 349ZM542.927 349L534.93 349.215L535.138 357H542.927V349ZM543 349H551V341H543V349ZM543 383.4L536.503 388.068L551 408.246V383.4H543ZM527.39 376.25L519.41 376.813L520.044 385.822L528.911 384.105L527.39 376.25ZM397.175 253L397.192 245L397.181 245L397.171 245L397.175 253ZM397 253L396.992 261L397.004 261L397 253ZM396.825 253V245H396.816L396.808 245L396.825 253ZM530.693 423.983L530.29 415.993L522.376 416.392L522.7 424.309L530.693 423.983ZM543 416.6H551V391.754L536.503 411.932L543 416.6ZM543 729V737H551V729H543ZM413 729H405V737H413V729ZM413 549.718L411.797 541.809L405 542.843V549.718H413ZM381.268 541.662C356.455 537.681 328.566 525.036 306.989 506.458C285.399 487.869 271 464.154 271 438.137H255C255 470.354 272.794 498.13 296.55 518.583C320.319 539.049 350.93 552.999 378.732 557.46L381.268 541.662ZM271 438.137C271 433.544 271.111 428.943 271.3 424.323L255.313 423.67C255.117 428.465 255 433.287 255 438.137H271ZM263 432C263.161 432 263.323 431.998 263.485 431.995L263.128 415.999C263.086 416 263.044 416 263 416V432ZM243.503 421.268C247.895 427.381 254.715 432 263 432V416C261.065 416 258.658 414.94 256.497 411.932L243.503 421.268ZM258 729V416.6H242V729H258ZM380 721H250V737H380V721ZM372 549.561V729H388V549.561H372ZM268.68 368.755C266.853 368.262 264.95 368 263 368V384C263.511 384 264.012 384.068 264.507 384.202L268.68 368.755ZM263 368C254.715 368 247.895 372.619 243.503 378.732L256.497 388.068C258.658 385.06 261.065 384 263 384V368ZM258 383.4V354.5H242V383.4H258ZM258 354.5V349H242V354.5H258ZM250 357H250.073V341H250V357ZM258.07 349.215C259.078 311.67 270.856 279.805 293.272 257.349C315.64 234.943 349.503 221 396.5 221V205C346.265 205 307.963 219.987 281.949 246.045C255.984 272.055 243.165 308.19 242.076 348.785L258.07 349.215ZM396.5 221C443.497 221 477.36 234.943 499.728 257.349C522.144 279.805 533.922 311.67 534.93 349.215L550.924 348.785C549.835 308.19 537.016 272.055 511.051 246.045C485.037 219.987 446.735 205 396.5 205V221ZM542.927 357H543V341H542.927V357ZM535 349V354.5H551V349H535ZM535 354.5V383.4H551V354.5H535ZM549.497 378.732C545.105 372.619 538.285 368 530 368V384C531.935 384 534.342 385.06 536.503 388.068L549.497 378.732ZM530 368C528.597 368 527.217 368.135 525.869 368.396L528.911 384.105C529.268 384.035 529.63 384 530 384V368ZM518.527 353.495C518.527 362.164 518.892 369.468 519.41 376.813L535.37 375.688C534.87 368.59 534.527 361.68 534.527 353.495H518.527ZM397.159 261C465.791 261.138 518.527 302.93 518.527 353.495H534.527C534.527 290.398 470.412 245.148 397.192 245L397.159 261ZM397.004 261L397.179 261L397.171 245L396.996 245L397.004 261ZM396.825 261C397.012 261 396.869 261 396.992 261L397.008 245C396.963 245 396.921 245 396.892 245C396.859 245 396.841 245 396.825 245V261ZM275.473 353.495C275.473 302.93 328.209 261.139 396.841 261L396.808 245C323.588 245.148 259.473 290.398 259.473 353.495H275.473ZM274.574 377.044C275.1 369.622 275.473 362.256 275.473 353.495H259.473C259.473 361.766 259.123 368.735 258.614 375.913L274.574 377.044ZM531.096 431.972C538.911 431.578 545.305 427.102 549.497 421.268L536.503 411.932C534.439 414.804 532.142 415.899 530.29 415.993L531.096 431.972ZM535 416.6V729H551V416.6H535ZM543 721H413V737H543V721ZM421 729V549.718H405V729H421ZM523 438.137C523 464.319 508.417 488.171 486.602 506.809C464.801 525.435 436.675 538.024 411.797 541.809L414.203 557.627C442.121 553.379 472.994 539.48 496.995 518.974C520.981 498.481 539 470.558 539 438.137H523ZM522.7 424.309C522.889 428.933 523 433.539 523 438.137H539C539 433.282 538.882 428.455 538.686 423.656L522.7 424.309Z" fill="#150C0C" mask="url(#path-1-outside-1_977_2672)"/>
</svg>
