<svg width="800" height="800" viewBox="0 0 800 800" fill="none" xmlns="http://www.w3.org/2000/svg">
<mask id="path-1-outside-1_880_1691" maskUnits="userSpaceOnUse" x="164" y="170" width="446" height="549" fill="black">
<rect fill="white" x="164" y="170" width="446" height="549"/>
<path fill-rule="evenodd" clip-rule="evenodd" d="M407.854 178C480.354 178 548.354 228.308 548.354 299C548.354 354.451 561.89 419.037 578.255 472.34C594.089 523.913 614.203 589.426 590.416 634.464C559.023 693.904 432.864 711 387.052 711C341.239 711 214.08 693.904 182.687 634.464C159.497 590.555 178.983 527.187 194.647 476.247C195.05 474.936 195.451 473.634 195.848 472.34C211.117 422.607 216.354 370.091 216.354 318C216.354 258.83 261.354 209.043 317.354 209.043C344.186 185.555 366.661 178 407.854 178ZM400.176 235L400 235C399.942 235 399.883 235 399.825 235C328.899 235.143 270.473 278.664 270.473 335.495C270.473 347.836 269.714 357.345 268.821 368.529L268.821 368.531C268.626 370.972 268.425 373.491 268.224 376.138C268.176 376.769 268.128 377.4 268.081 378.031C258.567 378.669 251 389.156 251 402C251 413.984 257.587 423.916 266.197 425.711C270.571 487.467 346.78 532.73 399.702 532.999C399.743 533 399.784 533 399.825 533L400 533L400.176 533C400.217 533 400.258 533 400.299 532.999C453.22 532.73 529.429 487.467 533.803 425.711C542.413 423.916 549 413.984 549 402C549 389.156 541.434 378.669 531.92 378.031L531.776 376.139L531.776 376.138C531.575 373.49 531.374 370.97 531.179 368.528C530.286 357.345 529.528 347.836 529.528 335.495C529.528 278.664 471.101 235.143 400.176 235Z"/>
</mask>
<path fill-rule="evenodd" clip-rule="evenodd" d="M407.854 178C480.354 178 548.354 228.308 548.354 299C548.354 354.451 561.89 419.037 578.255 472.34C594.089 523.913 614.203 589.426 590.416 634.464C559.023 693.904 432.864 711 387.052 711C341.239 711 214.08 693.904 182.687 634.464C159.497 590.555 178.983 527.187 194.647 476.247C195.05 474.936 195.451 473.634 195.848 472.34C211.117 422.607 216.354 370.091 216.354 318C216.354 258.83 261.354 209.043 317.354 209.043C344.186 185.555 366.661 178 407.854 178ZM400.176 235L400 235C399.942 235 399.883 235 399.825 235C328.899 235.143 270.473 278.664 270.473 335.495C270.473 347.836 269.714 357.345 268.821 368.529L268.821 368.531C268.626 370.972 268.425 373.491 268.224 376.138C268.176 376.769 268.128 377.4 268.081 378.031C258.567 378.669 251 389.156 251 402C251 413.984 257.587 423.916 266.197 425.711C270.571 487.467 346.78 532.73 399.702 532.999C399.743 533 399.784 533 399.825 533L400 533L400.176 533C400.217 533 400.258 533 400.299 532.999C453.22 532.73 529.429 487.467 533.803 425.711C542.413 423.916 549 413.984 549 402C549 389.156 541.434 378.669 531.92 378.031L531.776 376.139L531.776 376.138C531.575 373.49 531.374 370.97 531.179 368.528C530.286 357.345 529.528 347.836 529.528 335.495C529.528 278.664 471.101 235.143 400.176 235Z" fill="currentColor"/>
<path d="M578.255 472.34L585.903 469.992L585.903 469.992L578.255 472.34ZM590.416 634.464L583.342 630.727L583.342 630.727L590.416 634.464ZM182.687 634.464L189.761 630.727L189.761 630.727L182.687 634.464ZM194.647 476.247L187.001 473.896L187.001 473.896L194.647 476.247ZM195.848 472.34L203.496 474.688L203.496 474.688L195.848 472.34ZM317.354 209.043V217.043H320.361L322.624 215.062L317.354 209.043ZM400 235L399.992 243L400.004 243L400 235ZM400.176 235L400.192 227L400.182 227L400.172 227L400.176 235ZM399.825 235V227H399.817L399.809 227L399.825 235ZM268.821 368.529L260.847 367.893L260.845 367.908L260.844 367.922L268.821 368.529ZM268.821 368.531L276.796 369.168L276.797 369.153L276.798 369.138L268.821 368.531ZM268.224 376.138L276.201 376.744L276.201 376.744L268.224 376.138ZM268.081 378.031L268.616 386.013L275.534 385.549L276.058 378.635L268.081 378.031ZM266.197 425.711L274.177 425.146L273.75 419.113L267.83 417.879L266.197 425.711ZM399.702 532.999L399.857 525L399.8 524.999L399.742 524.999L399.702 532.999ZM399.825 533L399.825 541L399.832 541L399.825 533ZM400 533L400.007 525L399.993 525L400 533ZM400.176 533L400.169 541H400.176V533ZM400.299 532.999L400.258 524.999L400.201 524.999L400.144 525L400.299 532.999ZM533.803 425.711L532.17 417.879L526.25 419.113L525.823 425.146L533.803 425.711ZM531.92 378.031L523.943 378.636L524.467 385.549L531.384 386.013L531.92 378.031ZM531.776 376.139L523.798 376.73L523.799 376.737L523.799 376.745L531.776 376.139ZM531.776 376.138L539.754 375.547L539.754 375.54L539.753 375.532L531.776 376.138ZM531.179 368.528L523.204 369.165L523.204 369.165L531.179 368.528ZM556.354 299C556.354 222.491 483.231 170 407.854 170V186C477.478 186 540.354 234.124 540.354 299H556.354ZM585.903 469.992C569.66 417.089 556.354 353.35 556.354 299H540.354C540.354 355.552 554.119 420.985 570.607 474.688L585.903 469.992ZM597.49 638.2C610.543 613.485 611.241 583.834 607.114 554.729C602.976 525.544 593.785 495.666 585.903 469.992L570.607 474.688C578.559 500.587 587.342 529.252 591.272 556.975C595.215 584.78 594.076 610.405 583.342 630.727L597.49 638.2ZM387.052 719C410.65 719 454.382 714.636 496.328 702.717C517.324 696.752 538.158 688.814 555.891 678.397C573.576 668.009 588.699 654.846 597.49 638.2L583.342 630.727C576.437 643.802 564.018 655.066 547.787 664.601C531.604 674.107 512.149 681.589 491.955 687.327C451.519 698.816 409.265 703 387.052 703V719ZM175.613 638.2C184.411 654.859 199.61 668.023 217.385 678.407C235.211 688.821 256.169 696.757 277.288 702.721C319.478 714.637 363.456 719 387.052 719V703C364.835 703 322.327 698.815 281.636 687.323C261.314 681.584 241.733 674.1 225.456 664.591C209.127 655.052 196.659 643.788 189.761 630.727L175.613 638.2ZM187.001 473.896C179.204 499.25 170.211 528.437 166.176 556.868C162.151 585.23 162.862 614.056 175.613 638.2L189.761 630.727C179.322 610.963 178.181 586.151 182.018 559.116C185.844 532.151 194.426 504.184 202.294 478.598L187.001 473.896ZM188.2 469.992C187.804 471.284 187.404 472.585 187.001 473.896L202.294 478.598C202.697 477.288 203.098 475.984 203.496 474.688L188.2 469.992ZM208.354 318C208.354 369.589 203.163 421.257 188.2 469.992L203.496 474.688C219.071 423.957 224.354 370.593 224.354 318H208.354ZM317.354 201.043C256.319 201.043 208.354 255.055 208.354 318H224.354C224.354 262.605 266.39 217.043 317.354 217.043V201.043ZM407.854 170C386.81 170 369.916 171.921 354.632 177.143C339.263 182.394 326.048 190.8 312.085 203.023L322.624 215.062C335.492 203.797 346.93 196.682 359.805 192.284C372.765 187.856 387.705 186 407.854 186V170ZM400.004 243L400.18 243L400.172 227L399.996 227L400.004 243ZM399.825 243C400.012 243 399.869 243 399.992 243L400.008 227C399.963 227 399.921 227 399.892 227C399.859 227 399.842 227 399.825 227V243ZM278.473 335.495C278.473 284.93 331.209 243.139 399.841 243L399.809 227C326.588 227.148 262.473 272.398 262.473 335.495H278.473ZM276.796 369.166C277.688 357.986 278.473 348.19 278.473 335.495H262.473C262.473 347.482 261.739 356.704 260.847 367.893L276.796 369.166ZM276.798 369.138L276.798 369.136L260.844 367.922L260.844 367.924L276.798 369.138ZM276.201 376.744C276.401 374.115 276.601 371.61 276.796 369.168L260.846 367.895C260.652 370.333 260.449 372.868 260.247 375.532L276.201 376.744ZM276.058 378.635C276.105 378.005 276.153 377.375 276.201 376.744L260.247 375.532C260.199 376.163 260.151 376.795 260.103 377.426L276.058 378.635ZM259 402C259 397.098 260.453 392.926 262.479 390.093C264.515 387.247 266.784 386.136 268.616 386.013L267.545 370.049C259.863 370.564 253.592 375.015 249.466 380.784C245.331 386.565 243 394.058 243 402H259ZM267.83 417.879C264.284 417.14 259 411.775 259 402H243C243 416.192 250.891 430.692 264.565 433.542L267.83 417.879ZM399.742 524.999C375.246 524.874 344.561 514.209 319.45 495.943C294.321 477.664 276.137 452.814 274.177 425.146L258.217 426.276C260.631 460.365 282.739 489.024 310.038 508.882C337.356 528.754 371.236 540.854 399.661 540.999L399.742 524.999ZM399.825 525C399.839 525 399.85 525 399.857 525L399.547 540.997C399.635 540.999 399.728 541 399.825 541V525ZM399.993 525L399.818 525L399.832 541L400.007 541L399.993 525ZM400.182 525L400.007 525L399.993 541L400.169 541L400.182 525ZM400.144 525C400.15 525 400.161 525 400.176 525V541C400.272 541 400.365 540.999 400.454 540.997L400.144 525ZM525.823 425.146C523.863 452.814 505.679 477.664 480.55 495.943C455.44 514.209 424.754 524.874 400.258 524.999L400.339 540.999C428.765 540.854 462.644 528.754 489.962 508.882C517.261 489.024 539.369 460.365 541.783 426.276L525.823 425.146ZM541 402C541 411.775 535.717 417.14 532.17 417.879L535.436 433.542C549.109 430.692 557 416.192 557 402H541ZM531.384 386.013C533.216 386.136 535.486 387.247 537.521 390.093C539.547 392.926 541 397.098 541 402H557C557 394.058 554.67 386.565 550.534 380.784C546.408 375.015 540.137 370.564 532.455 370.049L531.384 386.013ZM523.799 376.745L523.943 378.636L539.897 377.425L539.753 375.534L523.799 376.745ZM523.798 376.729L523.798 376.73L539.754 375.548L539.754 375.547L523.798 376.729ZM523.204 369.165C523.399 371.608 523.599 374.114 523.799 376.744L539.753 375.532C539.551 372.867 539.348 370.331 539.154 367.892L523.204 369.165ZM521.528 335.495C521.528 348.19 522.312 357.985 523.204 369.165L539.154 367.892C538.261 356.704 537.528 347.482 537.528 335.495H521.528ZM400.159 243C468.791 243.138 521.528 284.93 521.528 335.495H537.528C537.528 272.398 473.412 227.148 400.192 227L400.159 243Z" fill="#150C0C" mask="url(#path-1-outside-1_880_1691)"/>
<path d="M337.121 282.951L331.936 278.73L330.668 285.294C329.07 293.564 322.087 304.625 313.749 312.172C299.745 324.846 287.058 334.012 275.366 338.888C264.744 343.317 255.121 344.144 246.023 340.984C246.185 331.741 247.24 325.165 250.068 317.322C253.248 308.502 258.671 298.058 267.866 280.57C286.859 244.447 328.991 231.049 375.926 232.052C422.706 233.051 472.785 248.399 505.439 267.964C507.284 269.069 509.544 271.184 512.123 274.403C514.665 277.575 517.351 281.611 520.096 286.32C525.584 295.736 531.161 307.594 536.164 320.045C541.162 332.487 545.551 345.431 548.684 356.991C551.632 367.866 553.395 377.257 553.616 383.796C552.132 385.552 550.732 386.464 549.484 386.905C548.035 387.416 546.395 387.431 544.42 386.833C540.231 385.564 535.282 381.766 529.783 376.16C524.609 370.884 519.404 364.498 514.334 358.277C514.113 358.006 513.893 357.735 513.672 357.465C508.495 351.114 503.367 344.865 498.812 340.743L498.521 340.48L498.184 340.278C497.538 339.891 496.874 339.492 496.194 339.083C488.504 334.464 478.717 328.586 468.302 323.733C457.078 318.505 444.698 314.257 433.022 314.209C417.369 312.69 397.976 308.638 380.12 303.034C362.078 297.371 346.124 290.281 337.121 282.951Z" fill="currentColor" stroke="#150C0C" stroke-width="8"/>
</svg>
