<svg width="800" height="800" viewBox="0 0 800 800" fill="none" xmlns="http://www.w3.org/2000/svg">
<mask id="path-1-outside-1_880_1742" maskUnits="userSpaceOnUse" x="196.734" y="175" width="405" height="506" fill="black">
<rect fill="white" x="196.734" y="175" width="405" height="506"/>
<path fill-rule="evenodd" clip-rule="evenodd" d="M215.281 366.098C215.281 402.695 223.063 429.274 236.162 448.238C229.874 457.813 224.298 468.502 219.725 480.09C196.715 538.399 207.814 597.408 244.516 611.891C252.008 614.848 259.989 615.72 268.141 614.74C273.73 620.69 280.077 625.721 286.185 630.563C298.672 640.462 310.159 649.568 312.124 664.112C312.583 667.512 315.268 670.465 318.655 669.911C349.541 664.856 373.64 622.934 373.64 571.968C373.64 565.164 373.21 558.521 372.393 552.106C321.385 540.814 263.001 497.591 263.001 442.136C263.001 434.514 263.299 426.917 263.742 419.324C255.856 416.773 250.001 407.298 250.001 396C250.001 383.143 257.584 372.647 267.111 372.029C267.337 367.465 267.474 362.735 267.474 357.495C267.474 300.664 325.9 257.143 396.826 257L396.906 257L397.001 257L397.177 257C468.103 257.143 526.529 300.664 526.529 357.495C526.529 362.774 526.668 367.536 526.896 372.131C535.947 373.394 543.001 383.599 543.001 396C543.001 406.825 537.626 415.976 530.24 418.968C530.694 426.679 531.001 434.395 531.001 442.136C531.001 498.035 471.679 541.506 420.386 552.371C425.371 596.244 448.524 617.576 510.501 582C519.889 576.611 526.717 568.043 534.628 558.116C542.378 548.39 551.167 537.36 564.421 526.737C594.435 487.473 596.189 385.317 583.693 341.094C567.646 284.305 531.23 242.541 496.629 237.51C480.356 201.572 445.788 179.351 395.922 186.254C309.644 198.197 215.281 258.013 215.281 366.098Z"/>
</mask>
<path fill-rule="evenodd" clip-rule="evenodd" d="M215.281 366.098C215.281 402.695 223.063 429.274 236.162 448.238C229.874 457.813 224.298 468.502 219.725 480.09C196.715 538.399 207.814 597.408 244.516 611.891C252.008 614.848 259.989 615.72 268.141 614.74C273.73 620.69 280.077 625.721 286.185 630.563C298.672 640.462 310.159 649.568 312.124 664.112C312.583 667.512 315.268 670.465 318.655 669.911C349.541 664.856 373.64 622.934 373.64 571.968C373.64 565.164 373.21 558.521 372.393 552.106C321.385 540.814 263.001 497.591 263.001 442.136C263.001 434.514 263.299 426.917 263.742 419.324C255.856 416.773 250.001 407.298 250.001 396C250.001 383.143 257.584 372.647 267.111 372.029C267.337 367.465 267.474 362.735 267.474 357.495C267.474 300.664 325.9 257.143 396.826 257L396.906 257L397.001 257L397.177 257C468.103 257.143 526.529 300.664 526.529 357.495C526.529 362.774 526.668 367.536 526.896 372.131C535.947 373.394 543.001 383.599 543.001 396C543.001 406.825 537.626 415.976 530.24 418.968C530.694 426.679 531.001 434.395 531.001 442.136C531.001 498.035 471.679 541.506 420.386 552.371C425.371 596.244 448.524 617.576 510.501 582C519.889 576.611 526.717 568.043 534.628 558.116C542.378 548.39 551.167 537.36 564.421 526.737C594.435 487.473 596.189 385.317 583.693 341.094C567.646 284.305 531.23 242.541 496.629 237.51C480.356 201.572 445.788 179.351 395.922 186.254C309.644 198.197 215.281 258.013 215.281 366.098Z" fill="currentColor"/>
<path d="M560.843 523.245L534.818 549.918L541.976 556.901L568 530.229L560.843 523.245ZM236.162 448.238L244.521 453.728L248.218 448.097L244.39 442.555L236.162 448.238ZM219.725 480.09L229.027 483.761L229.027 483.761L219.725 480.09ZM244.516 611.891L248.186 602.589L248.186 602.589L244.516 611.891ZM268.141 614.74L275.43 607.894L271.968 604.208L266.947 604.812L268.141 614.74ZM286.185 630.563L292.397 622.726L292.397 622.726L286.185 630.563ZM312.124 664.112L322.034 662.773L322.034 662.773L312.124 664.112ZM318.655 669.911L320.27 679.78L320.27 679.78L318.655 669.911ZM372.393 552.106L382.312 550.842L381.423 543.863L374.554 542.342L372.393 552.106ZM263.742 419.324L273.725 419.905L274.174 412.189L266.82 409.81L263.742 419.324ZM267.111 372.029L267.759 382.008L276.658 381.43L277.099 372.523L267.111 372.029ZM396.826 257L396.809 247L396.806 247L396.826 257ZM396.906 257L396.893 247L396.889 247L396.906 257ZM397.001 257L396.996 247L396.989 247L397.001 257ZM397.177 257L397.197 247L397.184 247L397.172 247L397.177 257ZM526.896 372.131L516.909 372.629L517.32 380.892L525.515 382.036L526.896 372.131ZM530.24 418.968L526.487 409.699L519.836 412.392L520.257 419.555L530.24 418.968ZM420.386 552.371L418.314 542.588L409.424 544.471L410.45 553.5L420.386 552.371ZM510.501 582L505.523 573.327L510.501 582ZM534.628 558.116L526.807 551.884L526.807 551.884L534.628 558.116ZM564.421 526.737L570.675 534.54L571.626 533.778L572.366 532.81L564.421 526.737ZM583.693 341.094L593.316 338.375L593.316 338.375L583.693 341.094ZM496.629 237.51L487.519 241.635L489.776 246.619L495.19 247.406L496.629 237.51ZM395.922 186.254L394.551 176.348L395.922 186.254ZM244.39 442.555C232.773 425.736 225.281 401.33 225.281 366.098H205.281C205.281 404.061 213.353 432.812 227.934 453.922L244.39 442.555ZM229.027 483.761C233.353 472.798 238.616 462.72 244.521 453.728L227.803 442.749C221.133 452.907 215.243 464.206 210.423 476.42L229.027 483.761ZM248.186 602.589C234.168 597.057 223.672 582.457 219.556 560.577C215.47 538.85 218.105 511.439 229.027 483.761L210.423 476.42C198.336 507.051 195.015 538.298 199.901 564.274C204.758 590.097 218.162 612.242 240.845 621.193L248.186 602.589ZM266.947 604.812C260.291 605.612 253.998 604.883 248.186 602.589L240.845 621.193C250.018 624.813 259.686 625.829 269.335 624.669L266.947 604.812ZM292.397 622.726C286.201 617.815 280.436 613.223 275.43 607.894L260.852 621.586C267.024 628.157 273.953 633.628 279.973 638.399L292.397 622.726ZM322.034 662.773C319.433 643.522 304.068 631.979 292.397 622.726L279.973 638.399C293.275 648.945 300.885 655.614 302.214 665.45L322.034 662.773ZM317.04 660.043C318.883 659.741 320.414 660.517 321.178 661.244C321.812 661.846 321.984 662.406 322.034 662.773L302.214 665.45C303.096 671.98 309.157 681.599 320.27 679.78L317.04 660.043ZM363.64 571.968C363.64 595.964 357.951 617.447 349.025 633.234C340.003 649.19 328.427 658.179 317.04 660.043L320.27 679.78C339.769 676.588 355.685 662.089 366.434 643.078C377.279 623.899 383.64 598.938 383.64 571.968H363.64ZM362.473 553.371C363.237 559.364 363.64 565.584 363.64 571.968H383.64C383.64 564.744 383.184 557.679 382.312 550.842L362.473 553.371ZM253.001 442.136C253.001 473.553 269.532 500.711 291.826 521.067C314.129 541.431 343.069 555.857 370.231 561.87L374.554 542.342C350.708 537.064 324.953 524.232 305.312 506.298C285.662 488.356 273.001 466.175 273.001 442.136H253.001ZM253.758 418.743C253.309 426.456 253.001 434.259 253.001 442.136H273.001C273.001 434.769 273.289 427.377 273.725 419.905L253.758 418.743ZM266.82 409.81C264.389 409.023 260.001 404.542 260.001 396H240.001C240.001 410.054 247.324 424.522 260.663 428.838L266.82 409.81ZM260.001 396C260.001 391.474 261.347 387.713 263.113 385.249C264.889 382.77 266.658 382.079 267.759 382.008L266.463 362.05C258.036 362.597 251.251 367.464 246.854 373.601C242.447 379.754 240.001 387.67 240.001 396H260.001ZM257.474 357.495C257.474 362.555 257.342 367.119 257.123 371.535L277.099 372.523C277.332 367.811 277.474 362.916 277.474 357.495H257.474ZM396.806 247C323.011 247.149 257.474 292.831 257.474 357.495H277.474C277.474 308.496 328.788 267.138 396.846 267L396.806 247ZM396.889 247L396.809 247L396.843 267L396.923 267L396.889 247ZM396.989 247L396.893 247L396.919 267L397.014 267L396.989 247ZM397.172 247L396.996 247L397.007 267L397.182 267L397.172 247ZM536.529 357.495C536.529 292.831 470.991 247.149 397.197 247L397.157 267C465.214 267.137 516.529 308.496 516.529 357.495H536.529ZM536.884 371.634C536.663 367.187 536.529 362.592 536.529 357.495H516.529C516.529 362.956 516.673 367.884 516.909 372.629L536.884 371.634ZM553.001 396C553.001 380.854 544.207 364.45 528.278 362.227L525.515 382.036C527.686 382.339 533.001 386.343 533.001 396H553.001ZM533.994 428.236C546.262 423.268 553.001 409.556 553.001 396H533.001C533.001 404.095 528.99 408.685 526.487 409.699L533.994 428.236ZM541.001 442.136C541.001 434.136 540.684 426.212 540.223 418.38L520.257 419.555C520.704 427.146 521.001 434.654 521.001 442.136H541.001ZM422.459 562.154C449.794 556.364 479.057 541.981 501.637 521.558C524.206 501.144 541.001 473.804 541.001 442.136H521.001C521.001 466.367 508.135 488.712 488.221 506.725C468.316 524.728 442.271 537.513 418.314 542.588L422.459 562.154ZM505.523 573.327C474.936 590.885 457.584 592.093 448.174 587.859C439.183 583.814 432.739 572.51 430.322 551.242L410.45 553.5C413.018 576.105 420.643 597.404 439.969 606.099C458.876 614.605 484.09 608.691 515.48 590.673L505.523 573.327ZM526.807 551.884C518.622 562.155 512.954 569.062 505.523 573.327L515.48 590.673C526.824 584.161 534.812 573.931 542.448 564.348L526.807 551.884ZM558.167 518.934C543.953 530.327 534.558 542.157 526.807 551.884L542.448 564.348C550.197 554.624 558.381 544.394 570.675 534.54L558.167 518.934ZM574.07 343.813C579.892 364.417 582.603 399.748 580.025 435.046C578.743 452.584 576.178 469.777 572.186 484.82C568.161 499.99 562.854 512.32 556.477 520.664L572.366 532.81C580.995 521.521 587.163 506.358 591.517 489.949C595.905 473.413 598.625 454.941 599.972 436.504C602.649 399.853 599.99 361.994 593.316 338.375L574.07 343.813ZM495.19 247.406C509.21 249.445 524.955 259.249 539.498 276.367C553.905 293.326 566.393 316.645 574.07 343.813L593.316 338.375C584.946 308.754 571.203 282.797 554.74 263.418C538.413 244.2 518.649 230.607 498.068 227.614L495.19 247.406ZM397.293 196.16C420.428 192.957 439.329 196.581 454.1 204.604C468.88 212.632 480.176 225.417 487.519 241.635L505.739 233.385C496.809 213.665 482.684 197.371 463.646 187.029C444.598 176.683 421.282 172.648 394.551 176.348L397.293 196.16ZM225.281 366.098C225.281 265.236 313.373 207.776 397.293 196.16L394.551 176.348C305.914 188.618 205.281 250.79 205.281 366.098H225.281Z" fill="#150C0C" mask="url(#path-1-outside-1_880_1742)"/>
<path d="M532.54 343.058C538.272 343.058 543.594 339.901 548 334.5L538 301L476 254.5L378.5 220L272 258L263 343.058C288 368.058 322 329.5 349 329.5C376 329.5 336.5 356.5 383 356.5C442.5 356.5 475.728 305.049 487.5 288C487.5 288 501.905 343.058 532.54 343.058Z" fill="currentColor"/>
<path fill-rule="evenodd" clip-rule="evenodd" d="M226.501 609.5C204.501 585 188.501 537.5 213.501 480C217.675 469.422 222.911 459.445 228.501 450.5L311.501 540.5C307.353 549.115 314.811 554.895 320.751 559.499C324.12 562.11 327.001 564.343 327.001 566.5C327.302 576.948 327.962 586.828 328.574 595.988C331.008 632.42 332.681 657.46 308.001 661.5C296.039 625.614 268.947 620.718 248.57 617.035C238.952 615.297 230.83 613.829 226.501 609.5Z" fill="currentColor"/>
<path fill-rule="evenodd" clip-rule="evenodd" d="M451.855 541.981C451.951 542.125 452.055 542.264 452.166 542.399C458.984 550.672 469.99 566.071 472.451 595.893C472.484 596.292 472.564 596.698 472.691 597.078C484.627 632.919 505.281 653.784 530.216 647.2C532.46 646.608 533.777 644.342 533.601 642.027C531.483 614.159 545.254 601.053 558.644 588.309C570.481 577.045 582.019 566.063 582.02 545.417C582.021 528.456 579.646 512.383 575.397 498.001C566.896 469.225 550.897 447.222 531.43 438.437C531.278 438.369 531.126 438.301 530.974 438.234C530.991 439.535 531 440.836 531 442.137C531 486.759 493.198 523.461 451.855 541.981Z" fill="currentColor"/>
<path d="M548 334.5C543.594 339.901 538.272 343.058 532.54 343.058C501.905 343.058 487.5 288 487.5 288C475.728 305.049 442.5 356.5 383 356.5C336.5 356.5 376 329.5 349 329.5C322 329.5 288 368.058 263 343.058" stroke="#150C0C" stroke-width="8" stroke-linejoin="round"/>
<mask id="path-7-outside-2_880_1742" maskUnits="userSpaceOnUse" x="468.023" y="500" width="118" height="148" fill="black">
<rect fill="white" x="468.023" y="500" width="118" height="148"/>
</mask>
<path d="M579 546.5L583 546.5L583 546.5L579 546.5ZM555.103 590.625L557.631 593.725L557.631 593.725L555.103 590.625ZM533.732 637.955L537.702 637.465L537.702 637.465L533.732 637.955ZM578.463 532.896L582.456 532.654L582.456 532.654L578.463 532.896ZM529.435 643.655L529.05 639.674L529.05 639.674L529.435 643.655ZM472.171 586.191L476.083 585.355L476.083 585.355L472.171 586.191ZM575 546.5C574.999 558.096 572.169 565.943 568.139 571.985C564.022 578.159 558.526 582.674 552.576 587.524L557.631 593.725C563.455 588.977 569.907 583.752 574.794 576.424C579.769 568.965 582.999 559.549 583 546.5L575 546.5ZM552.576 587.524C546.383 592.573 539.613 598.04 534.998 605.917C530.283 613.967 527.998 624.157 529.762 638.445L537.702 637.465C536.111 624.58 538.232 616.224 541.901 609.961C545.671 603.527 551.264 598.916 557.631 593.725L552.576 587.524ZM577.845 500.375C573.062 511.136 573.803 522.14 574.47 533.138L582.456 532.654C581.768 521.31 581.295 512.309 585.155 503.625L577.845 500.375ZM574.47 533.138C574.734 537.494 575 541.893 575 546.5L583 546.5C583 541.615 582.718 536.98 582.456 532.654L574.47 533.138ZM529.05 639.674C518.632 640.681 510.603 639.15 504.317 636.148C498.027 633.145 493.222 628.547 489.447 623.021C481.783 611.799 478.607 597.17 476.083 585.355L468.259 587.026C470.723 598.558 474.14 614.792 482.841 627.533C487.249 633.987 493.07 639.644 500.87 643.368C508.674 647.094 518.199 648.761 529.82 647.636L529.05 639.674ZM476.083 585.355C476.033 585.123 475.984 584.893 475.935 584.664L468.112 586.336C468.161 586.565 468.21 586.795 468.259 587.026L476.083 585.355ZM529.762 638.445C529.807 638.812 529.702 639.147 529.535 639.373C529.382 639.581 529.218 639.657 529.05 639.674L529.82 647.636C535.15 647.121 538.281 642.158 537.702 637.465L529.762 638.445Z" fill="#150C0C" mask="url(#path-7-outside-2_880_1742)"/>
<mask id="path-9-outside-3_880_1742" maskUnits="userSpaceOnUse" x="195.809" y="447" width="140" height="220" fill="black">
<rect fill="white" x="195.809" y="447" width="140" height="220"/>
</mask>
<path d="M226.501 609.5L223.525 612.173L223.596 612.252L223.672 612.328L226.501 609.5ZM213.501 480L217.169 481.595L217.196 481.532L217.222 481.468L213.501 480ZM229.234 451.947L232.586 454.13L232.586 454.13L229.234 451.947ZM306.501 662L302.706 663.265L303.784 666.498L307.147 665.947L306.501 662ZM248.11 617.138L248.865 613.21L248.865 613.21L248.11 617.138ZM331.298 590.08L335.297 590.003L335.297 590.003L331.298 590.08ZM229.477 606.827C208.516 583.484 192.797 537.65 217.169 481.595L209.832 478.405C184.204 537.35 200.486 586.516 223.525 612.173L229.477 606.827ZM217.222 481.468C220.951 472.019 226.498 463.476 232.586 454.13L225.882 449.764C219.874 458.988 213.856 468.202 209.78 478.532L217.222 481.468ZM232.586 454.13C233.007 453.483 233.43 452.833 233.855 452.18L227.147 447.82C226.725 448.469 226.303 449.117 225.882 449.764L232.586 454.13ZM310.296 660.735C304.008 641.874 293.785 630.828 282.321 624.08C271.033 617.436 258.761 615.111 248.865 613.21L247.356 621.066C257.404 622.997 268.337 625.132 278.263 630.974C288.012 636.713 297.012 646.182 302.706 663.265L310.296 660.735ZM248.865 613.21C244.12 612.298 240.033 611.507 236.596 610.441C233.146 609.371 230.811 608.154 229.329 606.672L223.672 612.328C226.504 615.16 230.291 616.862 234.226 618.082C238.173 619.306 242.734 620.178 247.356 621.066L248.865 613.21ZM307.147 665.947C314.384 664.763 320.085 661.931 324.39 657.433C328.645 652.987 331.251 647.21 332.87 640.61C336.058 627.609 335.686 610.075 335.297 590.003L327.298 590.158C327.696 610.671 327.98 626.96 325.1 638.705C323.685 644.477 321.576 648.803 318.611 651.901C315.696 654.947 311.672 657.1 305.855 658.053L307.147 665.947ZM335.297 590.003C335.252 587.686 335.206 585.329 335.165 582.931L327.166 583.069C327.208 585.477 327.253 587.842 327.298 590.158L335.297 590.003Z" fill="#150C0C" mask="url(#path-9-outside-3_880_1742)"/>
</svg>
