<svg width="800" height="800" viewBox="0 0 800 800" fill="none" xmlns="http://www.w3.org/2000/svg">
<mask id="path-1-outside-1_880_1752" maskUnits="userSpaceOnUse" x="268" y="226" width="285" height="507" fill="black">
<rect fill="white" x="268" y="226" width="285" height="507"/>
<path fill-rule="evenodd" clip-rule="evenodd" d="M544.5 383C544.5 388.494 544.334 393.919 544 399.26V725H276V481.791C301.587 520.98 354.773 546.796 394.702 546.999C394.742 547 394.783 547 394.825 547L395 547L395.175 547C395.217 547 395.258 547 395.298 546.999C449.8 546.722 529 498.725 529 434.137C529 419.426 527.89 404.808 526.776 390.138C526.575 387.491 526.374 384.97 526.179 382.529C525.286 371.345 524.527 361.836 524.527 349.495C524.527 292.664 466.101 249.143 395.175 249L395 249C394.968 249 394.937 249 394.905 249C394.878 249 394.851 249 394.825 249C377.943 249.034 361.771 251.526 346.925 256.069C369.629 242.074 396.372 234 425 234C488 234 544.5 300.71 544.5 383Z"/>
</mask>
<path fill-rule="evenodd" clip-rule="evenodd" d="M544.5 383C544.5 388.494 544.334 393.919 544 399.26V725H276V481.791C301.587 520.98 354.773 546.796 394.702 546.999C394.742 547 394.783 547 394.825 547L395 547L395.175 547C395.217 547 395.258 547 395.298 546.999C449.8 546.722 529 498.725 529 434.137C529 419.426 527.89 404.808 526.776 390.138C526.575 387.491 526.374 384.97 526.179 382.529C525.286 371.345 524.527 361.836 524.527 349.495C524.527 292.664 466.101 249.143 395.175 249L395 249C394.968 249 394.937 249 394.905 249C394.878 249 394.851 249 394.825 249C377.943 249.034 361.771 251.526 346.925 256.069C369.629 242.074 396.372 234 425 234C488 234 544.5 300.71 544.5 383Z" fill="currentColor"/>
<path d="M544 399.26L536.016 398.76L536 399.01V399.26H544ZM544 725V733H552V725H544ZM276 725H268V733H276V725ZM276 481.791L282.699 477.418L268 454.905V481.791H276ZM394.702 546.999L394.857 539L394.799 538.999L394.742 538.999L394.702 546.999ZM394.825 547L394.825 555L394.832 555L394.825 547ZM395 547L395.007 539L394.993 539L395 547ZM395.175 547L395.168 555H395.175V547ZM395.298 546.999L395.258 538.999L395.201 538.999L395.143 539L395.298 546.999ZM526.776 390.138L518.799 390.744L518.799 390.744L526.776 390.138ZM526.179 382.529L534.154 381.893L534.154 381.893L526.179 382.529ZM395.175 249L395.192 241L395.181 241L395.171 241L395.175 249ZM395 249L394.992 257L395.004 257L395 249ZM394.905 249L394.925 257L394.925 257L394.905 249ZM394.825 249V241H394.816L394.808 241L394.825 249ZM346.925 256.069L342.727 249.259L349.266 263.719L346.925 256.069ZM551.984 399.759C552.329 394.247 552.5 388.655 552.5 383H536.5C536.5 388.334 536.339 393.592 536.016 398.76L551.984 399.759ZM552 725V399.26H536V725H552ZM276 733H544V717H276V733ZM268 481.791V725H284V481.791H268ZM394.742 538.999C376.333 538.905 354.32 532.855 333.716 521.945C313.135 511.046 294.589 495.629 282.699 477.418L269.301 486.165C282.997 507.142 303.838 524.227 326.229 536.084C348.597 547.93 373.141 554.889 394.661 554.999L394.742 538.999ZM394.825 539C394.839 539 394.85 539 394.857 539L394.546 554.997C394.635 554.999 394.728 555 394.825 555V539ZM394.993 539L394.818 539L394.832 555L395.007 555L394.993 539ZM395.182 539L395.007 539L394.993 555L395.168 555L395.182 539ZM395.143 539C395.15 539 395.161 539 395.175 539V555C395.272 555 395.365 554.999 395.454 554.997L395.143 539ZM521 434.137C521 462.995 503.255 489.042 477.765 508.301C452.285 527.553 420.498 538.871 395.258 538.999L395.339 554.999C424.6 554.85 459.664 542.031 487.41 521.067C515.145 500.112 537 469.866 537 434.137H521ZM518.799 390.744C519.917 405.464 521 419.78 521 434.137H537C537 419.072 535.863 404.153 534.753 389.532L518.799 390.744ZM518.204 383.165C518.399 385.608 518.599 388.114 518.799 390.744L534.753 389.532C534.551 386.867 534.348 384.332 534.154 381.893L518.204 383.165ZM516.527 349.495C516.527 362.19 517.312 371.986 518.204 383.165L534.154 381.893C533.261 370.704 532.527 361.482 532.527 349.495H516.527ZM395.159 257C463.791 257.138 516.527 298.93 516.527 349.495H532.527C532.527 286.398 468.412 241.148 395.192 241L395.159 257ZM395.004 257L395.179 257L395.171 241L394.996 241L395.004 257ZM394.925 257C394.959 257 394.977 257 394.992 257L395.008 241C394.96 241 394.914 241 394.884 241L394.925 257ZM394.825 257C394.863 257 394.9 257 394.925 257L394.885 241C394.856 241 394.84 241 394.825 241V257ZM349.266 263.719C363.344 259.41 378.733 257.033 394.841 257L394.808 241C377.154 241.036 360.197 243.641 344.584 248.419L349.266 263.719ZM425 226C394.847 226 366.657 234.508 342.727 249.259L351.123 262.879C372.601 249.64 397.896 242 425 242V226ZM552.5 383C552.5 297.89 493.863 226 425 226V242C482.137 242 536.5 303.529 536.5 383H552.5Z" fill="#150C0C" mask="url(#path-1-outside-1_880_1752)"/>
<path d="M304 505C304 568.466 321.217 626.225 349.39 668.733C316.82 658.2 287.824 632.371 266.286 596.116C242.492 556.062 228 503.573 228 446C228 318.884 298.202 231 382.5 231C423.52 231 462.376 259.158 484.973 283.415C460.778 319.683 429.157 329.373 399.395 337.475C398.157 337.812 396.92 338.146 395.685 338.48C366.819 346.285 338.959 353.817 325.888 386.515C311.958 421.359 304 461.846 304 505Z" fill="currentColor" stroke="#150C0C" stroke-width="8"/>
</svg>
