<svg width="800" height="800" viewBox="0 0 800 800" fill="none" xmlns="http://www.w3.org/2000/svg">
<mask id="path-1-outside-1_880_1732" maskUnits="userSpaceOnUse" x="220" y="239.256" width="268" height="482" fill="black">
<rect fill="white" x="220" y="239.256" width="268" height="482"/>
<path fill-rule="evenodd" clip-rule="evenodd" d="M373.463 247.256C294.298 247.256 228 324.627 228 508.239C228 544.742 228 713.001 469.023 713.001C480.859 713.001 482.51 626.792 472.94 528.554C449.375 542.679 422.742 550.886 400.298 551C400.258 551 400.217 551.001 400.175 551.001L400 551.001L399.825 551.001C399.783 551.001 399.742 551 399.702 551C345.2 550.722 266 502.726 266 438.137C266 423.427 267.11 408.809 268.224 394.139C268.425 391.492 268.626 388.971 268.821 386.53C269.714 375.346 270.473 365.837 270.473 353.496C270.473 298.85 324.491 256.512 391.699 253.209C385.921 249.333 379.844 247.256 373.463 247.256Z"/>
</mask>
<path fill-rule="evenodd" clip-rule="evenodd" d="M373.463 247.256C294.298 247.256 228 324.627 228 508.239C228 544.742 228 713.001 469.023 713.001C480.859 713.001 482.51 626.792 472.94 528.554C449.375 542.679 422.742 550.886 400.298 551C400.258 551 400.217 551.001 400.175 551.001L400 551.001L399.825 551.001C399.783 551.001 399.742 551 399.702 551C345.2 550.722 266 502.726 266 438.137C266 423.427 267.11 408.809 268.224 394.139C268.425 391.492 268.626 388.971 268.821 386.53C269.714 375.346 270.473 365.837 270.473 353.496C270.473 298.85 324.491 256.512 391.699 253.209C385.921 249.333 379.844 247.256 373.463 247.256Z" fill="currentColor"/>
<path d="M373.463 247.256L373.463 255.256L373.463 247.256ZM472.94 528.554L480.902 527.778L479.676 515.189L468.827 521.692L472.94 528.554ZM400.298 551L400.258 543L400.201 543L400.143 543.001L400.298 551ZM400.175 551.001L400.168 559.001H400.175V551.001ZM400 551.001L400.007 543.001L399.993 543.001L400 551.001ZM399.825 551.001L399.825 559.001L399.832 559.001L399.825 551.001ZM399.702 551L399.857 543.001L399.799 543L399.742 543L399.702 551ZM268.224 394.139L276.201 394.745L276.201 394.745L268.224 394.139ZM268.821 386.53L260.846 385.894L260.846 385.894L268.821 386.53ZM391.699 253.209L392.092 261.199L416.204 260.014L396.156 246.565L391.699 253.209ZM236 508.239C236 417.226 252.459 353.669 277.826 313.137C302.981 272.943 336.904 255.256 373.463 255.256L373.463 239.256C330.856 239.256 292.048 260.254 264.263 304.649C236.69 348.705 220 415.64 220 508.239H236ZM469.023 705.001C350.602 705.001 293.192 663.834 264.847 619.967C236.089 575.459 236 526.378 236 508.239H220C220 526.603 219.911 579.903 251.409 628.65C283.32 678.038 346.421 721.001 469.023 721.001V705.001ZM464.978 529.329C469.741 578.223 471.699 624.01 471.011 657.452C470.665 674.229 469.659 687.604 468.092 696.627C467.296 701.214 466.436 704.174 465.7 705.793C465.327 706.612 465.191 706.625 465.485 706.332C465.87 705.951 467.087 705.001 469.023 705.001V721.001C472.439 721.001 475.056 719.378 476.76 717.685C478.375 716.081 479.478 714.146 480.265 712.416C481.847 708.938 482.983 704.394 483.856 699.364C485.629 689.154 486.656 674.836 487.007 657.781C487.711 623.559 485.71 577.123 480.902 527.778L464.978 529.329ZM468.827 521.692C446.225 535.24 420.983 542.894 400.258 543L400.339 559C424.501 558.877 452.525 550.118 477.053 535.415L468.827 521.692ZM400.143 543.001C400.15 543.001 400.161 543.001 400.175 543.001V559.001C400.272 559.001 400.365 559 400.454 558.998L400.143 543.001ZM400.182 543.001L400.007 543.001L399.993 559.001L400.168 559.001L400.182 543.001ZM399.993 543.001L399.818 543.001L399.832 559.001L400.007 559.001L399.993 543.001ZM399.825 543.001C399.839 543.001 399.85 543.001 399.857 543.001L399.546 558.998C399.635 559 399.728 559.001 399.825 559.001V543.001ZM399.742 543C374.502 542.871 342.715 531.554 317.235 512.302C291.745 493.043 274 466.996 274 438.137H258C258 473.867 279.855 504.113 307.59 525.068C335.336 546.031 370.4 558.851 399.661 559L399.742 543ZM274 438.137C274 423.78 275.083 409.465 276.201 394.745L260.247 393.533C259.137 408.153 258 423.073 258 438.137H274ZM276.201 394.745C276.401 392.115 276.601 389.609 276.796 387.167L260.846 385.894C260.652 388.333 260.449 390.868 260.247 393.533L276.201 394.745ZM276.796 387.167C277.688 375.987 278.473 366.191 278.473 353.496H262.473C262.473 365.483 261.739 374.705 260.846 385.894L276.796 387.167ZM278.473 353.496C278.473 304.854 327.16 264.39 392.092 261.199L391.306 245.218C321.822 248.633 262.473 292.846 262.473 353.496H278.473ZM373.463 255.256C378.004 255.256 382.556 256.709 387.242 259.852L396.156 246.565C389.286 241.956 381.683 239.256 373.463 239.256L373.463 255.256Z" fill="#150C0C" mask="url(#path-1-outside-1_880_1732)"/>
<mask id="path-3-inside-2_880_1732" fill="white">
<path fill-rule="evenodd" clip-rule="evenodd" d="M559.792 368C559.792 369.674 559.762 371.341 559.703 373H559.792V743H459.792V414.886C459.731 338.723 397.97 277 321.792 277C320.524 277 319.26 277.017 318 277.051C343.293 248.209 380.416 230 421.792 230C498.007 230 559.792 291.785 559.792 368Z"/>
</mask>
<path fill-rule="evenodd" clip-rule="evenodd" d="M559.792 368C559.792 369.674 559.762 371.341 559.703 373H559.792V743H459.792V414.886C459.731 338.723 397.97 277 321.792 277C320.524 277 319.26 277.017 318 277.051C343.293 248.209 380.416 230 421.792 230C498.007 230 559.792 291.785 559.792 368Z" fill="currentColor"/>
<path d="M559.703 373L551.708 372.715L551.413 381H559.703V373ZM559.792 373H567.792V365H559.792V373ZM559.792 743V751H567.792V743H559.792ZM459.792 743H451.792V751H459.792V743ZM459.792 414.886L467.792 414.886L467.792 414.88L459.792 414.886ZM318 277.051L311.985 271.776L299.913 285.542L318.216 285.048L318 277.051ZM567.698 373.285C567.761 371.531 567.792 369.769 567.792 368H551.792C551.792 369.579 551.764 371.151 551.708 372.715L567.698 373.285ZM559.703 381H559.792V365H559.703V381ZM551.792 373V743H567.792V373H551.792ZM559.792 735H459.792V751H559.792V735ZM467.792 743V414.886H451.792V743H467.792ZM321.792 285C393.553 285 451.734 343.145 451.792 414.893L467.792 414.88C467.727 334.301 402.386 269 321.792 269V285ZM318.216 285.048C319.404 285.016 320.596 285 321.792 285V269C320.452 269 319.116 269.018 317.784 269.054L318.216 285.048ZM421.792 222C378.016 222 338.733 241.276 311.985 271.776L324.015 282.326C347.854 255.142 382.816 238 421.792 238V222ZM567.792 368C567.792 287.366 502.426 222 421.792 222V238C493.589 238 551.792 296.203 551.792 368H567.792Z" fill="#150C0C" mask="url(#path-3-inside-2_880_1732)"/>
</svg>
