<svg width="800" height="800" viewBox="0 0 800 800" fill="none" xmlns="http://www.w3.org/2000/svg">
<mask id="path-1-outside-1_880_1706" maskUnits="userSpaceOnUse" x="199" y="342.828" width="395" height="241" fill="black">
<rect fill="white" x="199" y="342.828" width="395" height="241"/>
<path fill-rule="evenodd" clip-rule="evenodd" d="M267.102 351.186C256.178 373.583 250.467 399.68 244.657 426.23C237.126 460.642 229.429 495.813 210 524.67C290.753 591.777 502.247 591.777 583 524.67C563.715 491.47 556.004 455.256 548.767 421.269C542.992 394.151 537.52 368.45 526.711 346.828C526.988 354.613 527.551 361.655 528.179 369.527V369.527L528.179 369.529C528.374 371.97 528.575 374.491 528.776 377.138L528.776 377.14L528.788 377.292C528.866 378.32 528.944 379.348 529.021 380.376C536.001 383.679 541 392.562 541 403.001C541 412.463 536.893 420.647 530.926 424.555C528.201 487.411 450.834 533.727 397.298 533.999C397.258 534 397.217 534 397.175 534L397 534L396.825 534C396.783 534 396.742 534 396.702 533.999C343.343 533.728 266.309 487.716 263.103 425.176C256.585 421.568 252 412.998 252 403.001C252 392.053 257.497 382.818 265.012 379.934C265.083 379.002 265.153 378.071 265.224 377.138C265.425 374.491 265.626 371.97 265.821 369.53L265.821 369.53C266.33 363.149 266.796 357.313 267.102 351.186Z"/>
</mask>
<path fill-rule="evenodd" clip-rule="evenodd" d="M267.102 351.186C256.178 373.583 250.467 399.68 244.657 426.23C237.126 460.642 229.429 495.813 210 524.67C290.753 591.777 502.247 591.777 583 524.67C563.715 491.47 556.004 455.256 548.767 421.269C542.992 394.151 537.52 368.45 526.711 346.828C526.988 354.613 527.551 361.655 528.179 369.527V369.527L528.179 369.529C528.374 371.97 528.575 374.491 528.776 377.138L528.776 377.14L528.788 377.292C528.866 378.32 528.944 379.348 529.021 380.376C536.001 383.679 541 392.562 541 403.001C541 412.463 536.893 420.647 530.926 424.555C528.201 487.411 450.834 533.727 397.298 533.999C397.258 534 397.217 534 397.175 534L397 534L396.825 534C396.783 534 396.742 534 396.702 533.999C343.343 533.728 266.309 487.716 263.103 425.176C256.585 421.568 252 412.998 252 403.001C252 392.053 257.497 382.818 265.012 379.934C265.083 379.002 265.153 378.071 265.224 377.138C265.425 374.491 265.626 371.97 265.821 369.53L265.821 369.53C266.33 363.149 266.796 357.313 267.102 351.186Z" fill="currentColor"/>
<path d="M244.657 426.23L236.842 424.52L236.842 424.52L244.657 426.23ZM267.102 351.186L275.092 351.586L259.912 347.679L267.102 351.186ZM210 524.67L203.364 520.202L199.325 526.201L204.887 530.823L210 524.67ZM583 524.67L588.113 530.823L593.315 526.5L589.918 520.652L583 524.67ZM548.767 421.269L556.591 419.603L556.591 419.603L548.767 421.269ZM526.711 346.828L533.866 343.251L518.716 347.113L526.711 346.828ZM528.179 369.527H536.179V369.208L536.153 368.891L528.179 369.527ZM528.179 369.527H520.179V369.783L520.195 370.038L528.179 369.527ZM528.179 369.529L520.195 370.04L520.199 370.103L520.204 370.165L528.179 369.529ZM528.776 377.138L536.754 376.542L536.753 376.533L528.776 377.138ZM528.776 377.14L520.798 377.736L520.799 377.744L528.776 377.14ZM528.788 377.292L520.81 377.896L520.811 377.898L528.788 377.292ZM529.021 380.376L521.044 380.979L521.394 385.618L525.6 387.608L529.021 380.376ZM530.926 424.555L526.543 417.862L523.111 420.11L522.933 424.208L530.926 424.555ZM397.298 533.999L397.258 525.999L397.201 526L397.143 526.001L397.298 533.999ZM397.175 534L397.168 542H397.175V534ZM397 534L397.007 526L396.993 526L397 534ZM396.825 534L396.825 542L396.832 542L396.825 534ZM396.702 533.999L396.857 526.001L396.799 526L396.742 525.999L396.702 533.999ZM263.103 425.176L271.093 424.767L270.865 420.329L266.978 418.177L263.103 425.176ZM265.012 379.934L267.878 387.403L272.607 385.588L272.989 380.537L265.012 379.934ZM265.224 377.138L273.201 377.744L273.201 377.744L265.224 377.138ZM265.821 369.53L257.891 368.472L257.863 368.682L257.846 368.893L265.821 369.53ZM265.821 369.53L273.751 370.587L273.779 370.377L273.796 370.166L265.821 369.53ZM252.472 427.94C258.329 401.176 263.866 376.07 274.292 354.693L259.912 347.679C248.49 371.096 242.605 398.185 236.842 424.52L252.472 427.94ZM216.636 529.138C237.066 498.794 245.007 462.048 252.472 427.94L236.842 424.52C229.244 459.236 221.791 492.833 203.364 520.202L216.636 529.138ZM577.887 518.517C539.657 550.287 468.893 567 396.5 567C324.107 567 253.343 550.287 215.113 518.517L204.887 530.823C247.41 566.16 322.769 583 396.5 583C470.231 583 545.59 566.16 588.113 530.823L577.887 518.517ZM540.942 422.935C548.143 456.753 556.058 494.216 576.082 528.688L589.918 520.652C571.371 488.724 563.864 453.759 556.591 419.603L540.942 422.935ZM519.555 350.405C529.821 370.94 535.115 395.568 540.942 422.935L556.591 419.603C550.87 392.734 545.219 365.96 533.866 343.251L519.555 350.405ZM536.153 368.891C535.523 360.997 534.976 354.125 534.706 346.543L518.716 347.113C519.001 355.1 519.578 362.313 520.204 370.163L536.153 368.891ZM536.179 369.527V369.527H520.179V369.527H536.179ZM536.163 369.018L536.162 369.017L520.195 370.038L520.195 370.04L536.163 369.018ZM536.753 376.533C536.551 373.867 536.348 371.332 536.154 368.892L520.204 370.165C520.399 372.608 520.599 375.114 520.799 377.744L536.753 376.533ZM536.754 376.543L536.754 376.542L520.798 377.735L520.798 377.736L536.754 376.543ZM536.765 376.687L536.753 376.535L520.799 377.744L520.81 377.896L536.765 376.687ZM536.999 379.774C536.921 378.744 536.843 377.714 536.765 376.686L520.811 377.898C520.889 378.926 520.967 379.953 521.044 380.979L536.999 379.774ZM549 403.001C549 390.403 542.975 378.128 532.443 373.145L525.6 387.608C529.028 389.23 533 394.72 533 403.001H549ZM535.309 431.247C544.021 425.541 549 414.521 549 403.001H533C533 410.406 529.765 415.752 526.543 417.862L535.309 431.247ZM397.339 541.999C426.089 541.853 460.428 529.475 487.917 509.182C515.39 488.901 537.413 459.63 538.918 424.901L522.933 424.208C521.714 452.336 503.69 477.651 478.415 496.31C453.155 514.957 422.043 525.873 397.258 525.999L397.339 541.999ZM397.175 542C397.272 542 397.365 541.999 397.454 541.998L397.143 526.001C397.15 526.001 397.161 526 397.175 526V542ZM396.993 542L397.168 542L397.182 526L397.007 526L396.993 542ZM396.832 542L397.007 542L396.993 526L396.818 526L396.832 542ZM396.546 541.998C396.635 541.999 396.728 542 396.825 542V526C396.839 526 396.85 526.001 396.857 526.001L396.546 541.998ZM255.114 425.586C256.885 460.13 278.933 489.225 306.357 509.384C333.797 529.556 368.004 541.853 396.661 541.999L396.742 525.999C372.04 525.874 341.051 515.03 315.833 496.493C290.599 477.943 272.528 452.762 271.093 424.767L255.114 425.586ZM266.978 418.177C263.629 416.323 260 410.88 260 403.001H244C244 415.117 249.54 426.812 259.229 432.175L266.978 418.177ZM260 403.001C260 394.244 264.385 388.743 267.878 387.403L262.146 372.465C250.609 376.892 244 389.862 244 403.001H260ZM257.247 376.533C257.176 377.465 257.105 378.398 257.035 379.331L272.989 380.537C273.06 379.607 273.13 378.676 273.201 377.744L257.247 376.533ZM257.846 368.893C257.652 371.332 257.449 373.868 257.247 376.533L273.201 377.744C273.401 375.115 273.601 372.609 273.796 370.166L257.846 368.893ZM257.891 368.472L257.891 368.472L273.751 370.587L273.751 370.587L257.891 368.472ZM259.112 350.787C258.813 356.776 258.357 362.494 257.846 368.893L273.796 370.166C274.303 363.804 274.779 357.851 275.092 351.586L259.112 350.787Z" fill="#150C0C" mask="url(#path-1-outside-1_880_1706)"/>
<mask id="path-3-outside-2_880_1706" maskUnits="userSpaceOnUse" x="243.957" y="187" width="306" height="181" fill="black">
<rect fill="white" x="243.957" y="187" width="306" height="181"/>
<path fill-rule="evenodd" clip-rule="evenodd" d="M534.23 358.934C537.563 360.134 541.134 357.724 541.023 354.183C539.075 292.48 512.033 195 396.955 195C283.177 195 255.457 298.812 252.962 353.359C252.791 357.109 256.742 359.537 260.191 358.052C296.853 342.267 359.442 335.917 420.157 339.001C449.247 316.684 464.611 273.285 464.611 273.285C464.611 273.285 482.253 316.891 482.356 345.764C501.355 349.066 519.009 353.456 534.23 358.934Z"/>
</mask>
<path fill-rule="evenodd" clip-rule="evenodd" d="M534.23 358.934C537.563 360.134 541.134 357.724 541.023 354.183C539.075 292.48 512.033 195 396.955 195C283.177 195 255.457 298.812 252.962 353.359C252.791 357.109 256.742 359.537 260.191 358.052C296.853 342.267 359.442 335.917 420.157 339.001C449.247 316.684 464.611 273.285 464.611 273.285C464.611 273.285 482.253 316.891 482.356 345.764C501.355 349.066 519.009 353.456 534.23 358.934Z" fill="currentColor"/>
<path d="M541.023 354.183L549.019 353.931L549.019 353.931L541.023 354.183ZM534.23 358.934L531.521 366.462L531.521 366.462L534.23 358.934ZM252.962 353.359L244.971 352.993L244.971 352.993L252.962 353.359ZM260.191 358.052L263.354 365.4L263.354 365.4L260.191 358.052ZM420.157 339.001L419.751 346.991L422.691 347.14L425.026 345.349L420.157 339.001ZM464.611 273.285L472.027 270.285L464.112 250.722L457.069 270.615L464.611 273.285ZM482.356 345.764L474.356 345.793L474.38 352.498L480.986 353.646L482.356 345.764ZM533.027 354.435C532.99 353.284 533.605 352.283 534.37 351.755C535.101 351.25 536.065 351.092 536.939 351.407L531.521 366.462C539.74 369.419 549.323 363.564 549.019 353.931L533.027 354.435ZM396.955 203C451.785 203 484.832 226.004 504.757 255.891C525.003 286.26 532.078 324.386 533.027 354.435L549.019 353.931C548.02 322.278 540.601 280.812 518.069 247.015C495.216 212.736 457.203 187 396.955 187V203ZM260.954 353.724C262.162 327.312 269.504 289.279 289.92 258.108C310.048 227.376 343.014 203 396.955 203V187C337.118 187 299.335 214.53 276.535 249.341C254.023 283.713 246.257 324.859 244.971 352.993L260.954 353.724ZM257.027 350.704C257.848 350.351 258.785 350.455 259.517 350.921C260.308 351.425 261.011 352.479 260.954 353.724L244.971 352.993C244.495 363.395 255.186 368.917 263.354 365.4L257.027 350.704ZM420.563 331.012C359.424 327.906 295.371 334.195 257.027 350.704L263.354 365.4C298.335 350.339 359.46 343.928 419.751 346.991L420.563 331.012ZM425.026 345.349C440.861 333.2 452.618 315.647 460.308 301.62C464.194 294.53 467.134 288.17 469.108 283.569C470.096 281.265 470.845 279.395 471.353 278.085C471.607 277.43 471.801 276.914 471.934 276.554C472.001 276.374 472.052 276.233 472.089 276.132C472.107 276.082 472.121 276.042 472.132 276.012C472.137 275.997 472.141 275.985 472.145 275.976C472.146 275.971 472.148 275.967 472.149 275.963C472.15 275.962 472.151 275.96 472.151 275.959C472.152 275.957 472.152 275.955 464.611 273.285C457.069 270.615 457.07 270.614 457.07 270.613C457.07 270.613 457.071 270.611 457.071 270.611C457.071 270.61 457.071 270.61 457.071 270.611C457.071 270.611 457.07 270.615 457.067 270.621C457.063 270.633 457.055 270.656 457.043 270.688C457.02 270.754 456.981 270.859 456.928 271.002C456.822 271.288 456.658 271.727 456.435 272.302C455.989 273.453 455.31 275.147 454.404 277.261C452.587 281.495 449.868 287.379 446.277 293.929C439.013 307.181 428.542 322.485 415.287 332.654L425.026 345.349ZM464.611 273.285C457.195 276.286 457.194 276.285 457.194 276.284C457.194 276.285 457.194 276.284 457.194 276.284C457.194 276.285 457.195 276.285 457.195 276.287C457.196 276.29 457.199 276.296 457.202 276.304C457.209 276.321 457.22 276.347 457.234 276.385C457.264 276.459 457.31 276.573 457.371 276.727C457.492 277.034 457.674 277.496 457.907 278.099C458.373 279.305 459.045 281.074 459.853 283.291C461.472 287.73 463.632 293.943 465.792 301.03C470.181 315.427 474.309 332.6 474.356 345.793L490.356 345.736C490.3 330.055 485.555 310.988 481.097 296.364C478.834 288.941 476.577 282.448 474.885 277.808C474.038 275.486 473.33 273.622 472.831 272.331C472.582 271.686 472.384 271.183 472.247 270.837C472.179 270.664 472.125 270.53 472.088 270.438C472.07 270.392 472.055 270.355 472.045 270.33C472.04 270.317 472.036 270.307 472.033 270.299C472.031 270.296 472.03 270.293 472.029 270.29C472.028 270.289 472.028 270.288 472.028 270.287C472.027 270.286 472.027 270.285 464.611 273.285ZM536.939 351.407C521.175 345.734 503.052 341.242 483.726 337.882L480.986 353.646C499.657 356.891 516.842 361.179 531.521 366.462L536.939 351.407Z" fill="#150C0C" mask="url(#path-3-outside-2_880_1706)"/>
</svg>
