<svg width="800" height="800" viewBox="0 0 800 800" fill="none" xmlns="http://www.w3.org/2000/svg">
<mask id="path-1-outside-1_880_2146" maskUnits="userSpaceOnUse" x="213" y="177" width="373" height="467" fill="black">
<rect fill="white" x="213" y="177" width="373" height="467"/>
<path fill-rule="evenodd" clip-rule="evenodd" d="M402.892 187C314.802 187 241.608 241.581 232.5 312.79C226.132 362.572 231.6 410.54 235.467 444.468C237.132 459.072 238.5 471.074 238.5 479.5C238.5 500.34 233.791 515.087 228.658 531.162C226.895 536.684 225.081 542.363 223.392 548.5C220.618 565.578 232.989 580.33 247.392 569.5C257 562.275 267.392 563.5 273.843 572.199C273.843 577.448 273.39 583.187 272.933 588.984C270.863 615.255 268.697 642.733 308.091 631.361C319.231 628.145 328.297 621.303 337.885 614.066C345.889 608.026 354.258 601.71 364.5 597C388.381 586.018 416.941 580.818 450.525 574.702C466.675 571.761 483.988 568.609 502.5 564.5C580.102 547.277 576.626 419.325 574.902 355.878C574.688 347.97 574.5 341.065 574.5 335.5C574.5 294.493 546 261 524.5 261C524.5 234.5 481.218 187 402.892 187ZM399.175 243L399 243L398.905 243L398.825 243C327.899 243.143 269.473 286.664 269.473 343.495C269.473 355.836 268.714 365.345 267.821 376.529C267.655 378.61 267.484 380.749 267.313 382.975C264.032 387.322 262 393.345 262 400C262 405.17 263.226 409.958 265.311 413.875C265.116 418.623 265 423.375 265 428.137C265 492.725 344.2 540.722 398.702 540.999C398.742 541 398.783 541 398.825 541L399 541L399.175 541C399.217 541 399.258 541 399.298 540.999C453.8 540.722 533 492.725 533 428.137C533 426.757 532.99 425.378 532.972 424L533 424C542.941 424 551 413.255 551 400C551 386.745 542.941 376 533 376C532.034 376 531.085 376.102 530.16 376.297C529.276 365.213 528.527 355.751 528.527 343.495C528.527 286.664 470.101 243.143 399.175 243Z"/>
</mask>
<path fill-rule="evenodd" clip-rule="evenodd" d="M402.892 187C314.802 187 241.608 241.581 232.5 312.79C226.132 362.572 231.6 410.54 235.467 444.468C237.132 459.072 238.5 471.074 238.5 479.5C238.5 500.34 233.791 515.087 228.658 531.162C226.895 536.684 225.081 542.363 223.392 548.5C220.618 565.578 232.989 580.33 247.392 569.5C257 562.275 267.392 563.5 273.843 572.199C273.843 577.448 273.39 583.187 272.933 588.984C270.863 615.255 268.697 642.733 308.091 631.361C319.231 628.145 328.297 621.303 337.885 614.066C345.889 608.026 354.258 601.71 364.5 597C388.381 586.018 416.941 580.818 450.525 574.702C466.675 571.761 483.988 568.609 502.5 564.5C580.102 547.277 576.626 419.325 574.902 355.878C574.688 347.97 574.5 341.065 574.5 335.5C574.5 294.493 546 261 524.5 261C524.5 234.5 481.218 187 402.892 187ZM399.175 243L399 243L398.905 243L398.825 243C327.899 243.143 269.473 286.664 269.473 343.495C269.473 355.836 268.714 365.345 267.821 376.529C267.655 378.61 267.484 380.749 267.313 382.975C264.032 387.322 262 393.345 262 400C262 405.17 263.226 409.958 265.311 413.875C265.116 418.623 265 423.375 265 428.137C265 492.725 344.2 540.722 398.702 540.999C398.742 541 398.783 541 398.825 541L399 541L399.175 541C399.217 541 399.258 541 399.298 540.999C453.8 540.722 533 492.725 533 428.137C533 426.757 532.99 425.378 532.972 424L533 424C542.941 424 551 413.255 551 400C551 386.745 542.941 376 533 376C532.034 376 531.085 376.102 530.16 376.297C529.276 365.213 528.527 355.751 528.527 343.495C528.527 286.664 470.101 243.143 399.175 243Z" fill="currentColor"/>
<path d="M232.5 312.79L222.581 311.522L222.581 311.522L232.5 312.79ZM235.467 444.468L225.532 445.6L225.532 445.6L235.467 444.468ZM228.658 531.162L238.184 534.204L238.184 534.204L228.658 531.162ZM223.392 548.5L213.75 545.845L213.607 546.365L213.521 546.897L223.392 548.5ZM247.392 569.5L253.402 577.492L253.402 577.492L247.392 569.5ZM273.843 572.199H283.843V568.895L281.875 566.242L273.843 572.199ZM272.933 588.984L262.964 588.198L262.964 588.198L272.933 588.984ZM308.091 631.361L310.865 640.968L310.865 640.968L308.091 631.361ZM337.885 614.066L343.909 622.048L343.909 622.048L337.885 614.066ZM364.5 597L360.322 587.915L360.322 587.915L364.5 597ZM450.525 574.702L452.317 584.54L452.317 584.54L450.525 574.702ZM502.5 564.5L500.333 554.738L500.333 554.738L502.5 564.5ZM574.902 355.878L564.906 356.15L564.906 356.15L574.902 355.878ZM524.5 261H514.5V271H524.5V261ZM399 243L398.995 233L398.986 233L399 243ZM399.175 243L399.196 233L399.183 233L399.17 233L399.175 243ZM398.905 243L398.891 233L398.888 233L398.905 243ZM398.825 243L398.808 233L398.804 233L398.825 243ZM267.821 376.529L277.789 377.325L277.789 377.325L267.821 376.529ZM267.313 382.975L275.295 389L277.059 386.662L277.284 383.742L267.313 382.975ZM265.311 413.875L275.303 414.286L275.414 411.573L274.139 409.177L265.311 413.875ZM398.702 540.999L398.895 531.001L398.824 530.999L398.752 530.999L398.702 540.999ZM398.825 541L398.825 551L398.833 551L398.825 541ZM399 541L399.009 531L399 531L398.991 531L399 541ZM399.175 541L399.167 551H399.175V541ZM399.298 540.999L399.248 530.999L399.176 530.999L399.105 531.001L399.298 540.999ZM532.972 424L532.982 414L522.835 413.989L522.973 424.135L532.972 424ZM533 424L532.989 434H533V424ZM530.16 376.297L520.192 377.092L521.097 388.433L532.228 386.081L530.16 376.297ZM242.419 314.059C250.708 249.255 318.265 197 402.892 197V177C311.339 177 232.509 233.906 222.581 311.522L242.419 314.059ZM245.403 443.335C241.527 409.329 236.225 362.487 242.419 314.059L222.581 311.522C216.04 362.657 221.673 411.751 225.532 445.6L245.403 443.335ZM248.5 479.5C248.5 470.365 247.037 457.675 245.403 443.335L225.532 445.6C227.226 460.469 228.5 471.784 228.5 479.5H248.5ZM238.184 534.204C243.331 518.085 248.5 502.036 248.5 479.5H228.5C228.5 498.645 224.251 512.089 219.132 528.12L238.184 534.204ZM233.033 551.155C234.661 545.241 236.414 539.747 238.184 534.204L219.132 528.12C217.375 533.621 215.502 539.485 213.75 545.845L233.033 551.155ZM241.382 561.508C239.21 563.14 237.947 563.212 237.579 563.198C237.241 563.184 236.708 563.069 235.961 562.334C234.218 560.621 232.275 556.182 233.262 550.103L213.521 546.897C211.735 557.895 214.59 569.372 221.94 576.597C225.74 580.332 230.826 582.941 236.772 583.181C242.688 583.42 248.372 581.275 253.402 577.492L241.382 561.508ZM281.875 566.242C277.192 559.927 270.573 555.756 262.86 554.934C255.244 554.123 247.776 556.699 241.382 561.508L253.402 577.492C256.615 575.076 259.147 574.652 260.742 574.822C262.24 574.981 264.043 575.772 265.811 578.155L281.875 566.242ZM282.903 589.77C283.352 584.066 283.843 577.916 283.843 572.199H263.843C263.843 576.98 263.429 582.307 262.964 588.198L282.903 589.77ZM305.317 621.753C296.245 624.372 291.021 624.29 288.217 623.557C286.034 622.986 284.922 621.959 284.005 620.018C282.845 617.56 282.123 613.7 282.012 608.089C281.902 602.581 282.376 596.451 282.903 589.77L262.964 588.198C262.456 594.652 261.883 601.809 262.016 608.487C262.146 615.061 262.958 622.285 265.921 628.559C269.128 635.351 274.731 640.703 283.157 642.906C290.962 644.948 300.24 644.036 310.865 640.968L305.317 621.753ZM331.861 606.085C322.005 613.523 314.384 619.136 305.317 621.753L310.865 640.968C324.077 637.154 334.588 629.083 343.909 622.048L331.861 606.085ZM360.322 587.915C348.955 593.142 339.774 600.113 331.861 606.085L343.909 622.048C352.005 615.939 359.56 610.278 368.678 606.085L360.322 587.915ZM448.734 564.864C415.508 570.914 385.581 576.299 360.322 587.915L368.678 606.085C391.181 595.737 418.374 590.721 452.317 584.54L448.734 564.864ZM500.333 554.738C482.034 558.799 464.901 561.92 448.734 564.864L452.317 584.54C468.449 581.603 485.941 578.418 504.667 574.262L500.333 554.738ZM564.906 356.15C565.773 388.063 566.999 434.758 558.652 475.517C550.191 516.829 532.933 547.502 500.333 554.738L504.667 574.262C549.669 564.275 569.474 522.361 578.245 479.529C587.13 436.145 585.755 387.141 584.899 355.607L564.906 356.15ZM564.5 335.5C564.5 341.231 564.693 348.29 564.906 356.15L584.899 355.607C584.683 347.65 584.5 340.899 584.5 335.5H564.5ZM524.5 271C530.528 271 540.42 276.297 549.474 288.752C558.14 300.674 564.5 317.266 564.5 335.5H584.5C584.5 312.727 576.61 292.069 565.651 276.993C555.08 262.449 539.972 251 524.5 251V271ZM402.892 197C439.993 197 468.301 208.235 487.136 222.113C496.582 229.073 503.562 236.634 508.112 243.682C512.747 250.86 514.5 256.92 514.5 261H534.5C534.5 251.83 530.843 242.015 524.914 232.833C518.902 223.522 510.166 214.239 499 206.012C476.612 189.515 444.117 177 402.892 177V197ZM399.005 253L399.18 253L399.17 233L398.995 233L399.005 253ZM398.919 253L399.014 253L398.986 233L398.891 233L398.919 253ZM398.842 253L398.922 253L398.888 233L398.808 233L398.842 253ZM279.473 343.495C279.473 294.496 330.787 253.138 398.845 253L398.804 233C325.01 233.149 259.473 278.831 259.473 343.495H279.473ZM277.789 377.325C278.682 366.146 279.473 356.278 279.473 343.495H259.473C259.473 355.394 258.746 364.544 257.853 375.734L277.789 377.325ZM277.284 383.742C277.454 381.533 277.623 379.408 277.789 377.325L257.853 375.734C257.687 377.813 257.515 379.965 257.342 382.208L277.284 383.742ZM272 400C272 395.307 273.445 391.449 275.295 389L259.331 376.951C254.618 383.196 252 391.383 252 400H272ZM274.139 409.177C272.862 406.779 272 403.616 272 400H252C252 406.724 253.59 413.137 256.484 418.574L274.139 409.177ZM275 428.137C275 423.536 275.112 418.924 275.303 414.286L255.32 413.465C255.12 418.322 255 423.213 255 428.137H275ZM398.752 530.999C374.015 530.873 342.638 519.743 317.441 500.706C292.231 481.658 275 456.136 275 428.137H255C255 464.725 277.369 495.496 305.384 516.663C333.413 537.84 368.887 550.847 398.651 550.999L398.752 530.999ZM398.825 531C398.853 531 398.876 531 398.895 531.001L398.508 550.997C398.608 550.999 398.714 551 398.825 551V531ZM398.991 531L398.816 531L398.833 551L399.009 551L398.991 531ZM399.184 531L399.009 531L398.991 551L399.167 551L399.184 531ZM399.105 531.001C399.124 531 399.147 531 399.175 531V551C399.286 551 399.392 550.999 399.492 550.997L399.105 531.001ZM523 428.137C523 456.136 505.769 481.658 480.559 500.706C455.362 519.743 423.985 530.873 399.248 530.999L399.349 550.999C429.113 550.847 464.587 537.84 492.616 516.663C520.631 495.496 543 464.725 543 428.137H523ZM522.973 424.135C522.991 425.47 523 426.804 523 428.137H543C543 426.71 542.99 425.286 542.971 423.865L522.973 424.135ZM533.011 414L532.982 414L532.961 434L532.989 434L533.011 414ZM541 400C541 404.673 539.567 408.519 537.728 410.971C535.891 413.419 534.117 414 533 414V434C541.824 434 549.05 429.208 553.728 422.971C558.404 416.736 561 408.582 561 400H541ZM533 386C534.117 386 535.891 386.581 537.728 389.029C539.567 391.481 541 395.327 541 400H561C561 391.418 558.404 383.264 553.728 377.029C549.05 370.792 541.824 366 533 366V386ZM532.228 386.081C532.482 386.027 532.738 386 533 386V366C531.33 366 529.689 366.176 528.093 366.513L532.228 386.081ZM518.527 343.495C518.527 356.19 519.308 366.008 520.192 377.092L540.129 375.501C539.244 364.418 538.527 355.311 538.527 343.495H518.527ZM399.155 253C467.213 253.137 518.527 294.496 518.527 343.495H538.527C538.527 278.831 472.99 233.149 399.196 233L399.155 253Z" fill="#150C0C" mask="url(#path-1-outside-1_880_2146)"/>
<path d="M544.281 354.013L540.1 359.942C535.471 365.343 529.877 368.5 523.853 368.5C491.661 368.5 488.649 269 488.649 269C488.649 269 446.203 329 427.813 312.5C423.084 308.257 424.791 298.043 424.546 297.5C409.091 309.371 354.138 375.5 324.714 350.5C318.408 344 318.934 326.5 318.934 326.5C274.797 368.5 272.633 426.709 266.878 473C266.215 478.327 265.865 483.357 265.865 488H248L266.878 269C266.878 269 389.323 216 406.27 216C423.217 216 585.641 283.216 544.281 354.013Z" fill="currentColor"/>
<path d="M540.102 359.942C535.472 365.343 529.879 368.5 523.855 368.5C491.662 368.5 488.651 269 488.651 269C488.651 269 444.628 330 428.339 313C424.547 309.042 424.793 298.043 424.547 297.5C409.093 309.371 354.139 375.5 324.715 350.5C318.41 344 318.935 326.5 318.935 326.5C276.489 366.892 272.634 426.709 266.879 473" stroke="#150C0C" stroke-width="10" stroke-linejoin="round"/>
</svg>
