<svg width="800" height="800" viewBox="0 0 800 800" fill="none" xmlns="http://www.w3.org/2000/svg">
<path d="M437.486 557.382C438.356 549.734 439.123 542.994 439.39 537.971C463.552 529.25 484.732 515.468 501.341 498.098C501.524 501.373 501.765 504.911 502.022 508.692C503.426 529.324 505.321 557.175 501.035 588.966C499.139 603.031 490.387 626.278 479.851 644.634C474.584 653.81 469.065 661.416 464.003 665.983C461.466 668.272 459.287 669.573 457.537 670.085C455.941 670.551 454.77 670.363 453.696 669.657C445.751 664.436 440.581 655.427 437.486 643.787C434.396 632.165 433.504 618.389 433.755 604.337C434.005 590.316 435.385 576.235 436.735 564.05C436.987 561.767 437.241 559.538 437.486 557.382Z" fill="currentColor" stroke="#150C0C" stroke-width="8"/>
<mask id="path-2-outside-1_880_1686" maskUnits="userSpaceOnUse" x="247.68" y="198" width="300" height="172" fill="black">
<rect fill="white" x="247.68" y="198" width="300" height="172"/>
<path fill-rule="evenodd" clip-rule="evenodd" d="M532.152 360.727C535.493 361.962 539.104 359.546 539.001 355.985C537.215 294.086 512.259 206 398.212 206C285.49 206 259.065 300.719 256.685 355.131C256.52 358.906 260.52 361.341 263.976 359.813C293.489 346.764 339.41 340.072 387.46 339.737L405.138 294.738C405.803 293.047 408.197 293.047 408.861 294.738L426.989 340.883C465.646 343.4 503.164 350.015 532.152 360.727Z"/>
</mask>
<path fill-rule="evenodd" clip-rule="evenodd" d="M532.152 360.727C535.493 361.962 539.104 359.546 539.001 355.985C537.215 294.086 512.259 206 398.212 206C285.49 206 259.065 300.719 256.685 355.131C256.52 358.906 260.52 361.341 263.976 359.813C293.489 346.764 339.41 340.072 387.46 339.737L405.138 294.738C405.803 293.047 408.197 293.047 408.861 294.738L426.989 340.883C465.646 343.4 503.164 350.015 532.152 360.727Z" fill="currentColor"/>
<path d="M539.001 355.985L531.005 356.216L531.005 356.216L539.001 355.985ZM532.152 360.727L534.925 353.223L534.925 353.223L532.152 360.727ZM256.685 355.131L248.692 354.782L248.692 354.782L256.685 355.131ZM263.976 359.813L267.211 367.13L267.211 367.13L263.976 359.813ZM387.46 339.737L387.516 347.737L392.927 347.699L394.906 342.662L387.46 339.737ZM405.138 294.738L412.584 297.664L412.584 297.664L405.138 294.738ZM408.861 294.738L416.307 291.813L416.307 291.813L408.861 294.738ZM426.989 340.883L419.543 343.808L421.401 348.536L426.47 348.866L426.989 340.883ZM531.005 356.216C530.971 355.064 531.591 354.071 532.35 353.552C533.077 353.055 534.044 352.898 534.925 353.223L529.378 368.231C537.625 371.279 547.277 365.411 546.998 355.755L531.005 356.216ZM398.212 214C452.822 214 485.029 234.903 504.139 262.351C523.594 290.296 530.133 326.003 531.005 356.216L546.998 355.755C546.084 324.068 539.251 284.782 517.27 253.209C494.943 221.14 457.649 198 398.212 198V214ZM264.677 355.481C265.83 329.126 272.822 293.5 292.659 264.699C312.183 236.352 344.524 214 398.212 214V198C339.179 198 301.946 223.008 279.482 255.623C257.33 287.784 249.92 326.724 248.692 354.782L264.677 355.481ZM260.741 352.496C261.57 352.13 262.511 352.234 263.238 352.693C264.022 353.187 264.732 354.233 264.677 355.481L248.692 354.782C248.236 365.22 259.015 370.753 267.211 367.13L260.741 352.496ZM387.404 331.737C338.936 332.075 291.731 338.794 260.741 352.496L267.211 367.13C295.248 354.733 339.884 348.069 387.516 347.737L387.404 331.737ZM394.906 342.662L412.584 297.664L397.692 291.813L380.014 336.812L394.906 342.662ZM412.584 297.664C410.59 302.739 403.409 302.738 401.415 297.664L416.307 291.813C412.984 283.355 401.015 283.355 397.692 291.813L412.584 297.664ZM401.415 297.664L419.543 343.808L434.435 337.958L416.307 291.813L401.415 297.664ZM534.925 353.223C504.972 342.154 466.63 335.447 427.509 332.9L426.47 348.866C464.663 351.353 501.355 357.875 529.378 368.231L534.925 353.223Z" fill="#150C0C" mask="url(#path-2-outside-1_880_1686)"/>
</svg>
