<svg width="800" height="800" viewBox="0 0 800 800" fill="none" xmlns="http://www.w3.org/2000/svg">
<mask id="path-1-outside-1_880_1701" maskUnits="userSpaceOnUse" x="184" y="138" width="428" height="440" fill="black">
<rect fill="white" x="184" y="138" width="428" height="440"/>
<path fill-rule="evenodd" clip-rule="evenodd" d="M487.5 177C476.61 177 466.403 180.417 457.623 186.384C445.445 162.138 423.743 146 399 146C373.312 146 350.903 163.394 339.025 189.195C332.981 187.114 326.599 186 320 186C284.77 186 255.706 217.761 251.518 258.777C217.897 264.335 192 299.03 192 341C192 369.516 203.955 394.674 222.165 409.616C215.718 422.24 212 437.098 212 453C212 498.84 242.892 536 281 536C284.641 536 288.217 535.661 291.706 535.007C304.209 556.183 324.763 570 348 570C369.628 570 388.932 558.03 401.583 539.297C413.946 553.37 430.635 562 449 562C473.589 562 495.174 546.528 507.394 523.236C513.901 525.682 520.823 527 528 527C566.108 527 597 489.84 597 444C597 425.566 592.004 408.537 583.553 394.762C596.229 378.645 604 356.911 604 333C604 290.738 579.725 255.28 546.995 245.607C546.586 207.635 520.106 177 487.5 177ZM532 423C541.941 423 550 412.255 550 399C550 385.745 541.941 375 532 375C531.376 375 530.76 375.042 530.153 375.125C530.028 373.463 529.902 371.802 529.776 370.139L529.776 370.138C529.575 367.49 529.374 364.97 529.179 362.528C528.286 351.345 527.527 341.836 527.527 329.495C527.527 272.664 469.101 229.143 398.175 229L398 229C397.968 229 397.936 229 397.905 229C397.878 229 397.851 229 397.825 229C326.899 229.143 268.473 272.664 268.473 329.495C268.473 341.836 267.714 351.345 266.821 362.529C266.626 364.97 266.425 367.491 266.224 370.138C266.1 371.768 265.977 373.398 265.854 375.027C265.571 375.009 265.286 375 265 375C255.059 375 247 385.745 247 399C247 412.031 254.789 422.637 264.498 422.991C271.275 483.064 345.722 526.734 397.702 526.999C397.724 526.999 397.747 527 397.77 527C397.788 527 397.806 527 397.825 527L398 527L398.175 527C398.217 527 398.258 527 398.298 526.999C450.278 526.734 524.725 483.064 531.502 422.991C531.667 422.997 531.833 423 532 423Z"/>
</mask>
<path fill-rule="evenodd" clip-rule="evenodd" d="M487.5 177C476.61 177 466.403 180.417 457.623 186.384C445.445 162.138 423.743 146 399 146C373.312 146 350.903 163.394 339.025 189.195C332.981 187.114 326.599 186 320 186C284.77 186 255.706 217.761 251.518 258.777C217.897 264.335 192 299.03 192 341C192 369.516 203.955 394.674 222.165 409.616C215.718 422.24 212 437.098 212 453C212 498.84 242.892 536 281 536C284.641 536 288.217 535.661 291.706 535.007C304.209 556.183 324.763 570 348 570C369.628 570 388.932 558.03 401.583 539.297C413.946 553.37 430.635 562 449 562C473.589 562 495.174 546.528 507.394 523.236C513.901 525.682 520.823 527 528 527C566.108 527 597 489.84 597 444C597 425.566 592.004 408.537 583.553 394.762C596.229 378.645 604 356.911 604 333C604 290.738 579.725 255.28 546.995 245.607C546.586 207.635 520.106 177 487.5 177ZM532 423C541.941 423 550 412.255 550 399C550 385.745 541.941 375 532 375C531.376 375 530.76 375.042 530.153 375.125C530.028 373.463 529.902 371.802 529.776 370.139L529.776 370.138C529.575 367.49 529.374 364.97 529.179 362.528C528.286 351.345 527.527 341.836 527.527 329.495C527.527 272.664 469.101 229.143 398.175 229L398 229C397.968 229 397.936 229 397.905 229C397.878 229 397.851 229 397.825 229C326.899 229.143 268.473 272.664 268.473 329.495C268.473 341.836 267.714 351.345 266.821 362.529C266.626 364.97 266.425 367.491 266.224 370.138C266.1 371.768 265.977 373.398 265.854 375.027C265.571 375.009 265.286 375 265 375C255.059 375 247 385.745 247 399C247 412.031 254.789 422.637 264.498 422.991C271.275 483.064 345.722 526.734 397.702 526.999C397.724 526.999 397.747 527 397.77 527C397.788 527 397.806 527 397.825 527L398 527L398.175 527C398.217 527 398.258 527 398.298 526.999C450.278 526.734 524.725 483.064 531.502 422.991C531.667 422.997 531.833 423 532 423Z" fill="currentColor"/>
<path d="M457.623 186.384L450.474 189.975L454.571 198.131L462.119 193.001L457.623 186.384ZM339.025 189.195L336.42 196.759L343.264 199.116L346.292 192.541L339.025 189.195ZM251.518 258.777L252.823 266.67L258.856 265.673L259.477 259.59L251.518 258.777ZM222.165 409.616L229.29 413.254L232.22 407.517L227.24 403.431L222.165 409.616ZM291.706 535.007L298.595 530.939L295.744 526.111L290.233 527.144L291.706 535.007ZM401.583 539.297L407.593 534.017L400.753 526.232L394.953 534.82L401.583 539.297ZM507.394 523.236L510.209 515.747L503.594 513.26L500.31 519.519L507.394 523.236ZM583.553 394.762L577.265 389.817L573.82 394.196L576.734 398.946L583.553 394.762ZM546.995 245.607L538.996 245.694L539.059 251.604L544.728 253.279L546.995 245.607ZM530.153 375.125L522.175 375.723L522.811 384.196L531.23 383.052L530.153 375.125ZM529.776 370.139L521.798 370.73L521.798 370.738L521.799 370.745L529.776 370.139ZM529.776 370.138L537.754 369.547L537.754 369.54L537.753 369.532L529.776 370.138ZM529.179 362.528L521.204 363.165L521.204 363.165L529.179 362.528ZM398.175 229L398.192 221L398.181 221L398.171 221L398.175 229ZM398 229L397.992 237L398.004 237L398 229ZM397.905 229L397.885 221L397.884 221L397.905 229ZM397.825 229V221H397.816L397.808 221L397.825 229ZM266.821 362.529L274.796 363.166L274.796 363.166L266.821 362.529ZM266.224 370.138L258.247 369.532L258.247 369.532L266.224 370.138ZM265.854 375.027L265.357 383.011L273.241 383.502L273.832 375.625L265.854 375.027ZM264.498 422.991L272.448 422.094L271.675 415.247L264.79 414.996L264.498 422.991ZM397.702 526.999L397.851 519L397.797 518.999L397.742 518.999L397.702 526.999ZM397.77 527L397.695 534.999L397.703 535L397.77 527ZM397.825 527L397.825 535L397.832 535L397.825 527ZM398 527L398.007 519L397.993 519L398 527ZM398.175 527L398.168 535H398.175V527ZM398.298 526.999L398.258 518.999L398.201 518.999L398.143 519L398.298 526.999ZM531.502 422.991L531.792 414.996L524.383 414.727L523.552 422.094L531.502 422.991ZM462.119 193.001C469.674 187.867 478.331 185 487.5 185V169C474.889 169 463.133 172.967 453.127 179.767L462.119 193.001ZM399 154C419.998 154 439.297 167.722 450.474 189.975L464.772 182.793C451.593 156.555 427.489 138 399 138V154ZM346.292 192.541C357.222 168.798 377.21 154 399 154V138C369.414 138 344.584 157.99 331.758 185.849L346.292 192.541ZM320 194C325.689 194 331.192 194.959 336.42 196.759L341.629 181.631C334.771 179.269 327.509 178 320 178V194ZM259.477 259.59C263.379 221.377 290.042 194 320 194V178C279.497 178 248.034 214.144 243.56 257.965L259.477 259.59ZM200 341C200 301.887 224.021 271.432 252.823 266.67L250.213 250.884C211.773 257.239 184 296.172 184 341H200ZM227.24 403.431C211.057 390.153 200 367.357 200 341H184C184 371.675 196.853 399.194 217.09 415.8L227.24 403.431ZM220 453C220 438.34 223.428 424.731 229.29 413.254L215.04 405.977C208.007 419.748 204 435.856 204 453H220ZM281 528C248.631 528 220 495.868 220 453H204C204 501.811 237.154 544 281 544V528ZM290.233 527.144C287.225 527.707 284.143 528 281 528V544C285.14 544 289.209 543.614 293.179 542.87L290.233 527.144ZM348 562C328.148 562 309.966 550.198 298.595 530.939L284.817 539.074C298.453 562.169 321.378 578 348 578V562ZM394.953 534.82C383.5 551.779 366.491 562 348 562V578C372.765 578 394.364 564.281 408.213 543.774L394.953 534.82ZM449 554C433.272 554 418.674 546.63 407.593 534.017L395.573 544.577C409.219 560.11 427.998 570 449 570V554ZM500.31 519.519C489.157 540.777 469.994 554 449 554V570C477.184 570 501.191 552.279 514.479 526.952L500.31 519.519ZM528 519C521.814 519 515.845 517.866 510.209 515.747L504.579 530.724C511.958 533.498 519.831 535 528 535V519ZM589 444C589 486.868 560.369 519 528 519V535C571.846 535 605 492.811 605 444H589ZM576.734 398.946C584.392 411.426 589 427.002 589 444H605C605 424.131 599.617 405.647 590.372 390.578L576.734 398.946ZM596 333C596 355.201 588.782 375.173 577.265 389.817L589.841 399.708C603.677 382.116 612 358.622 612 333H596ZM544.728 253.279C573.356 261.739 596 293.492 596 333H612C612 287.984 586.095 248.82 549.262 237.935L544.728 253.279ZM487.5 185C514.613 185 538.621 210.908 538.996 245.694L554.995 245.521C554.551 204.362 525.598 169 487.5 169V185ZM542 399C542 404.064 540.451 408.34 538.328 411.171C536.207 413.998 533.888 415 532 415V431C540.053 431 546.734 426.629 551.128 420.771C555.52 414.914 558 407.191 558 399H542ZM532 383C533.888 383 536.207 384.002 538.328 386.829C540.451 389.66 542 393.936 542 399H558C558 390.809 555.52 383.086 551.128 377.229C546.734 371.371 540.053 367 532 367V383ZM531.23 383.052C531.482 383.018 531.739 383 532 383V367C531.014 367 530.038 367.067 529.076 367.198L531.23 383.052ZM521.799 370.745C521.925 372.408 522.051 374.066 522.175 375.723L538.131 374.527C538.006 372.861 537.879 371.195 537.753 369.533L521.799 370.745ZM521.798 370.729L521.798 370.73L537.754 369.548L537.754 369.547L521.798 370.729ZM521.204 363.165C521.399 365.608 521.599 368.114 521.799 370.744L537.753 369.532C537.551 366.867 537.348 364.331 537.154 361.892L521.204 363.165ZM519.527 329.495C519.527 342.19 520.312 351.985 521.204 363.165L537.154 361.892C536.261 350.704 535.527 341.482 535.527 329.495H519.527ZM398.159 237C466.791 237.138 519.527 278.93 519.527 329.495H535.527C535.527 266.398 471.412 221.148 398.192 221L398.159 237ZM398.004 237L398.18 237L398.171 221L397.996 221L398.004 237ZM397.924 237C397.958 237 397.976 237 397.992 237L398.008 221C397.96 221 397.915 221 397.885 221L397.924 237ZM397.825 237C397.863 237 397.9 237 397.925 237L397.884 221C397.856 221 397.839 221 397.825 221V237ZM276.473 329.495C276.473 278.93 329.209 237.139 397.841 237L397.808 221C324.588 221.148 260.473 266.398 260.473 329.495H276.473ZM274.796 363.166C275.688 351.986 276.473 342.19 276.473 329.495H260.473C260.473 341.482 259.739 350.704 258.846 361.893L274.796 363.166ZM274.201 370.744C274.401 368.114 274.601 365.608 274.796 363.166L258.846 361.893C258.652 364.332 258.449 366.867 258.247 369.532L274.201 370.744ZM273.832 375.625C273.954 374 274.077 372.374 274.201 370.744L258.247 369.532C258.123 371.162 257.999 372.795 257.877 374.428L273.832 375.625ZM266.352 367.042C265.903 367.014 265.453 367 265 367V383C265.12 383 265.239 383.004 265.357 383.011L266.352 367.042ZM265 367C256.947 367 250.266 371.371 245.872 377.229C241.48 383.086 239 390.809 239 399H255C255 393.936 256.549 389.66 258.672 386.829C260.793 384.002 263.112 383 265 383V367ZM239 399C239 407.056 241.398 414.654 245.65 420.47C249.896 426.28 256.353 430.699 264.206 430.986L264.79 414.996C262.935 414.928 260.642 413.867 258.567 411.028C256.496 408.196 255 403.975 255 399H239ZM397.742 518.999C373.689 518.877 343.655 508.591 318.785 490.904C293.895 473.202 275.49 449.062 272.448 422.094L256.549 423.888C260.283 456.993 282.49 484.724 309.512 503.942C336.555 523.175 369.734 534.857 397.661 534.999L397.742 518.999ZM397.845 519C397.85 519 397.853 519 397.851 519L397.552 534.997C397.596 534.998 397.644 534.999 397.695 534.999L397.845 519ZM397.825 519C397.833 519 397.838 519 397.837 519L397.703 535C397.739 535 397.78 535 397.825 535V519ZM397.993 519L397.818 519L397.832 535L398.007 535L397.993 519ZM398.182 519L398.007 519L397.993 535L398.168 535L398.182 519ZM398.143 519C398.15 519 398.161 519 398.175 519V535C398.272 535 398.365 534.999 398.454 534.997L398.143 519ZM523.552 422.094C520.51 449.062 502.105 473.202 477.215 490.904C452.345 508.591 422.311 518.877 398.258 518.999L398.339 534.999C426.266 534.857 459.445 523.175 486.488 503.942C513.51 484.724 535.717 456.993 539.451 423.888L523.552 422.094ZM532 415C531.929 415 531.86 414.999 531.792 414.996L531.211 430.986C531.475 430.995 531.738 431 532 431V415Z" fill="#150C0C" mask="url(#path-1-outside-1_880_1701)"/>
<path d="M369.71 305C386.987 305 402.567 297.979 413.198 286.76C422.402 296.474 435.317 303.041 449.83 304.628C456.13 325.997 476.264 341.804 500.442 343.789C510.564 359.562 529.122 370 550.184 370C581.793 370 608 346.355 608 316.5C608 288.29 584.588 265.614 555.351 263.211C546.342 249.174 530.651 239.362 512.464 237.372C505.722 214.499 483.133 198 456.685 198C439.408 198 423.828 205.021 413.198 216.24C402.567 205.021 386.987 198 369.71 198C343.002 198 320.22 214.83 313.733 238.059C312.828 238.02 311.917 238 311.001 238C290.883 238 273.054 247.523 262.674 262.117C261.399 262.04 260.112 262 258.816 262C227.207 262 201 285.645 201 315.5C201 345.355 227.207 369 258.816 369C278.935 369 296.763 359.477 307.143 344.883C308.419 344.96 309.705 345 311.001 345C337.709 345 360.491 328.17 366.978 304.941C367.883 304.98 368.794 305 369.71 305Z" fill="currentColor" stroke="#150C0C" stroke-width="8"/>
</svg>
