<svg width="800" height="800" viewBox="0 0 800 800" fill="none" xmlns="http://www.w3.org/2000/svg">
<mask id="path-1-inside-1_880_1646" fill="white">
<path fill-rule="evenodd" clip-rule="evenodd" d="M531.244 232.827C580.618 206.138 458.679 147.336 374.958 192.591C356.479 202.579 340.518 214.886 327.769 228.077C327.254 228.056 326.737 228.045 326.219 228.045C287.438 228.045 256 286.509 256 358.627C256 393.083 263.176 424.422 274.901 447.757C275.252 441.886 275.672 436.016 276.091 430.138C276.28 427.491 276.469 424.97 276.653 422.529C277.492 411.345 278.206 401.836 278.206 389.495C278.206 332.664 333.143 289.143 399.835 289C399.89 289 399.945 289 400 289L400.165 289C466.856 289.143 521.794 332.664 521.794 389.495C521.794 401.836 522.508 411.345 523.347 422.529C523.531 424.97 523.72 427.491 523.909 430.138V430.138C524.795 442.544 525.678 454.912 525.929 467.33C537.017 442.242 544 405.703 544 365.022C544 313.179 532.659 268.063 515.934 244.801C520.209 240.152 525.212 236.088 531.244 232.827Z"/>
</mask>
<path fill-rule="evenodd" clip-rule="evenodd" d="M531.244 232.827C580.618 206.138 458.679 147.336 374.958 192.591C356.479 202.579 340.518 214.886 327.769 228.077C327.254 228.056 326.737 228.045 326.219 228.045C287.438 228.045 256 286.509 256 358.627C256 393.083 263.176 424.422 274.901 447.757C275.252 441.886 275.672 436.016 276.091 430.138C276.28 427.491 276.469 424.97 276.653 422.529C277.492 411.345 278.206 401.836 278.206 389.495C278.206 332.664 333.143 289.143 399.835 289C399.89 289 399.945 289 400 289L400.165 289C466.856 289.143 521.794 332.664 521.794 389.495C521.794 401.836 522.508 411.345 523.347 422.529C523.531 424.97 523.72 427.491 523.909 430.138V430.138C524.795 442.544 525.678 454.912 525.929 467.33C537.017 442.242 544 405.703 544 365.022C544 313.179 532.659 268.063 515.934 244.801C520.209 240.152 525.212 236.088 531.244 232.827Z" fill="currentColor"/>
<path d="M374.958 192.591L378.762 199.628L378.762 199.628L374.958 192.591ZM531.244 232.827L535.048 239.865L535.048 239.865L531.244 232.827ZM327.769 228.077L327.447 236.07L331.03 236.214L333.521 233.636L327.769 228.077ZM274.901 447.757L267.752 451.349L281.108 477.93L282.886 448.235L274.901 447.757ZM276.091 430.138L268.112 429.568L268.112 429.568L276.091 430.138ZM276.653 422.529L268.675 421.931L276.653 422.529ZM399.835 289V281H399.826L399.818 281L399.835 289ZM400 289L399.991 297L400.004 297L400 289ZM400.165 289L400.182 281L400.171 281L400.161 281L400.165 289ZM523.347 422.529L531.325 421.93L531.325 421.93L523.347 422.529ZM523.909 430.138H531.909V429.853L531.888 429.568L523.909 430.138ZM523.909 430.138H515.909V430.423L515.929 430.708L523.909 430.138ZM525.929 467.33L517.931 467.492L533.246 470.564L525.929 467.33ZM515.934 244.801L510.045 239.386L505.636 244.182L509.439 249.471L515.934 244.801ZM378.762 199.628C418.077 178.377 467.014 181.408 500.329 193.267C517.215 199.278 528.457 206.986 532.803 213.403C534.82 216.381 534.801 218.199 534.478 219.272C534.095 220.543 532.615 222.992 527.44 225.79L535.048 239.865C542.216 235.991 547.726 230.763 549.798 223.888C551.93 216.813 549.831 210.012 546.051 204.431C538.804 193.731 523.587 184.562 505.694 178.193C469.453 165.293 415.56 161.55 371.154 185.553L378.762 199.628ZM333.521 233.636C345.691 221.044 360.994 209.233 378.762 199.628L371.154 185.553C351.965 195.926 335.344 208.727 322.017 222.517L333.521 233.636ZM326.219 236.045C326.63 236.045 327.039 236.054 327.447 236.07L328.091 220.083C327.468 220.058 326.844 220.045 326.219 220.045V236.045ZM264 358.627C264 323.625 271.646 292.334 283.613 270.081C295.755 247.5 311.187 236.045 326.219 236.045V220.045C302.47 220.045 282.792 237.823 269.521 262.503C256.073 287.511 248 321.511 248 358.627H264ZM282.049 444.166C270.977 422.129 264 392.06 264 358.627H248C248 394.106 255.375 426.715 267.752 451.349L282.049 444.166ZM282.886 448.235C283.235 442.418 283.651 436.594 284.071 430.708L268.112 429.568C267.692 435.439 267.27 441.355 266.915 447.279L282.886 448.235ZM284.071 430.708C284.259 428.077 284.447 425.57 284.63 423.128L268.675 421.931C268.492 424.37 268.302 426.904 268.112 429.568L284.071 430.708ZM284.63 423.128C285.469 411.948 286.206 402.169 286.206 389.495H270.206C270.206 401.503 269.515 410.742 268.675 421.931L284.63 423.128ZM286.206 389.495C286.206 338.535 335.955 297.137 399.852 297L399.818 281C330.332 281.149 270.206 326.793 270.206 389.495H286.206ZM399.835 297C400.019 297 399.875 297 399.991 297L400.009 281C399.965 281 399.924 281 399.896 281C399.865 281 399.85 281 399.835 281V297ZM400.004 297L400.169 297L400.161 281L399.996 281L400.004 297ZM400.148 297C464.045 297.137 513.794 338.535 513.794 389.495H529.794C529.794 326.793 469.668 281.149 400.182 281L400.148 297ZM513.794 389.495C513.794 402.169 514.531 411.948 515.37 423.128L531.325 421.93C530.485 410.742 529.794 401.503 529.794 389.495H513.794ZM515.37 423.128C515.553 425.57 515.741 428.077 515.929 430.708L531.888 429.568C531.698 426.904 531.508 424.37 531.325 421.93L515.37 423.128ZM515.909 430.138V430.138H531.909V430.138H515.909ZM515.929 430.708C516.817 443.148 517.684 455.312 517.931 467.492L533.928 467.168C533.671 454.511 532.772 441.94 531.888 429.568L515.929 430.708ZM536 365.022C536 404.934 529.128 440.301 518.612 464.096L533.246 470.564C544.906 444.183 552 406.472 552 365.022H536ZM509.439 249.471C524.739 270.751 536 313.88 536 365.022H552C552 312.478 540.579 265.375 522.43 240.131L509.439 249.471ZM527.44 225.79C520.563 229.507 514.869 234.141 510.045 239.386L521.823 250.216C525.549 246.164 529.861 242.669 535.048 239.865L527.44 225.79Z" fill="#150C0C" mask="url(#path-1-inside-1_880_1646)"/>
</svg>
