<svg width="800" height="800" viewBox="0 0 800 800" fill="none" xmlns="http://www.w3.org/2000/svg">
<path d="M400.529 214L400.523 214C400.48 214 400.467 214 400.451 214L400.529 214ZM400.529 214L400.7 214M400.529 214L400.7 214M400.7 214C470.476 214.143 526.055 256.798 526.055 310.495C526.055 314.625 525.966 321.002 525.864 328.369C525.632 345.071 525.329 366.866 525.827 379.138H275.228C275.726 366.867 275.423 345.072 275.191 328.37C275.089 321.002 275 314.626 275 310.495C275 256.798 330.579 214.143 400.356 214L400.7 214Z" fill="currentColor" stroke="#150C0C" stroke-width="8"/>
</svg>
