<svg width="800" height="800" viewBox="0 0 800 800" fill="none" xmlns="http://www.w3.org/2000/svg">
<mask id="path-1-inside-1_978_2737" fill="white">
<path fill-rule="evenodd" clip-rule="evenodd" d="M400.703 235L400.527 235L400.432 235L400.352 235C329.426 235.143 271 278.664 271 335.495C271 339.766 271.091 346.28 271.195 353.757C271.279 359.855 271.373 366.594 271.434 373.279C271.459 371.727 271.473 370.136 271.473 368.495C271.473 311.664 329.899 268.143 400.825 268C400.851 268 400.878 268 400.905 268C400.937 268 400.968 268 401 268L401.175 268C467.514 268.134 522.918 306.216 529.807 357.643C529.825 356.324 529.843 355.026 529.86 353.756C529.964 346.279 530.055 339.766 530.055 335.495C530.055 278.664 471.629 235.143 400.703 235Z"/>
</mask>
<path fill-rule="evenodd" clip-rule="evenodd" d="M400.703 235L400.527 235L400.432 235L400.352 235C329.426 235.143 271 278.664 271 335.495C271 339.766 271.091 346.28 271.195 353.757C271.279 359.855 271.373 366.594 271.434 373.279C271.459 371.727 271.473 370.136 271.473 368.495C271.473 311.664 329.899 268.143 400.825 268C400.851 268 400.878 268 400.905 268C400.937 268 400.968 268 401 268L401.175 268C467.514 268.134 522.918 306.216 529.807 357.643C529.825 356.324 529.843 355.026 529.86 353.756C529.964 346.279 530.055 339.766 530.055 335.495C530.055 278.664 471.629 235.143 400.703 235Z" fill="currentColor"/>
<path d="M400.527 235L400.523 227L400.517 227L400.527 235ZM400.703 235L400.719 227L400.709 227L400.699 227L400.703 235ZM400.432 235L400.422 227L400.419 227L400.432 235ZM400.352 235L400.338 227L400.336 227L400.352 235ZM271.195 353.757L279.194 353.646L271.195 353.757ZM271.434 373.279L263.434 373.351L279.433 373.409L271.434 373.279ZM400.825 268V260H400.816L400.808 260L400.825 268ZM400.905 268L400.885 260L400.885 260L400.905 268ZM401 268L400.992 276L401.004 276L401 268ZM401.175 268L401.192 260L401.181 260L401.171 260L401.175 268ZM529.807 357.643L521.878 358.705L537.806 357.753L529.807 357.643ZM529.86 353.756L537.86 353.867L537.86 353.867L529.86 353.756ZM400.532 243L400.707 243L400.699 227L400.523 227L400.532 243ZM400.443 243L400.538 243L400.517 227L400.422 227L400.443 243ZM400.366 243L400.446 243L400.419 227L400.338 227L400.366 243ZM279 335.495C279 284.93 331.737 243.139 400.368 243L400.336 227C327.115 227.148 263 272.398 263 335.495H279ZM279.194 353.646C279.089 346.141 279 339.696 279 335.495H263C263 339.836 263.092 346.419 263.195 353.868L279.194 353.646ZM279.433 373.206C279.372 366.499 279.279 359.741 279.194 353.646L263.195 353.868C263.28 359.969 263.374 366.689 263.434 373.351L279.433 373.206ZM279.433 373.409C279.459 371.814 279.473 370.18 279.473 368.495H263.473C263.473 370.092 263.459 371.64 263.435 373.148L279.433 373.409ZM279.473 368.495C279.473 317.93 332.209 276.139 400.841 276L400.808 260C327.588 260.148 263.473 305.398 263.473 368.495H279.473ZM400.825 276C400.863 276 400.9 276 400.926 276L400.885 260C400.856 260 400.839 260 400.825 260V276ZM400.925 276C400.959 276 400.977 276 400.992 276L401.008 260C400.96 260 400.914 260 400.885 260L400.925 276ZM401.004 276L401.179 276L401.171 260L400.996 260L401.004 276ZM401.159 276C465.198 276.129 515.718 312.726 521.878 358.705L537.736 356.581C530.117 299.706 469.83 260.138 401.192 260L401.159 276ZM521.861 353.645C521.844 354.915 521.826 356.213 521.807 357.534L537.806 357.753C537.824 356.434 537.842 355.137 537.86 353.867L521.861 353.645ZM522.055 335.495C522.055 339.696 521.966 346.141 521.861 353.645L537.86 353.867C537.963 346.418 538.055 339.835 538.055 335.495H522.055ZM400.687 243C469.318 243.138 522.055 284.93 522.055 335.495H538.055C538.055 272.398 473.94 227.148 400.719 227L400.687 243Z" fill="#150C0C" mask="url(#path-1-inside-1_978_2737)"/>
</svg>
