<svg width="800" height="800" viewBox="0 0 800 800" fill="none" xmlns="http://www.w3.org/2000/svg">
<path d="M396.501 256.345C439.996 256.345 476.639 227.187 476.639 189.672C476.639 152.157 439.996 123 396.501 123C353.006 123 316.363 152.157 316.363 189.672C316.363 227.187 353.006 256.345 396.501 256.345Z" fill="currentColor" stroke="#150C0C" stroke-width="8"/>
<mask id="path-2-outside-1_880_1676" maskUnits="userSpaceOnUse" x="229" y="188.883" width="335" height="287" fill="black">
<rect fill="white" x="229" y="188.883" width="335" height="287"/>
<path fill-rule="evenodd" clip-rule="evenodd" d="M530.912 447.765C546.793 422.416 556 392.278 556 359.942C556 269.887 484.589 196.883 396.5 196.883C308.411 196.883 237 269.887 237 359.942C237 392.93 246.582 423.63 263.056 449.291C263.294 436.55 264.258 423.864 265.224 411.138C265.425 408.491 265.626 405.971 265.821 403.53C266.714 392.346 267.473 382.837 267.473 370.495C267.473 313.664 325.899 270.144 396.825 270.001C396.851 270.001 396.878 270.001 396.905 270.001C396.936 270.001 396.968 270.001 397 270.001L397.175 270C468.101 270.144 526.527 313.664 526.527 370.495C526.527 382.836 527.286 392.345 528.179 403.529C528.374 405.97 528.575 408.491 528.776 411.138L528.776 411.14C529.704 423.357 530.629 435.537 530.912 447.765Z"/>
</mask>
<path fill-rule="evenodd" clip-rule="evenodd" d="M530.912 447.765C546.793 422.416 556 392.278 556 359.942C556 269.887 484.589 196.883 396.5 196.883C308.411 196.883 237 269.887 237 359.942C237 392.93 246.582 423.63 263.056 449.291C263.294 436.55 264.258 423.864 265.224 411.138C265.425 408.491 265.626 405.971 265.821 403.53C266.714 392.346 267.473 382.837 267.473 370.495C267.473 313.664 325.899 270.144 396.825 270.001C396.851 270.001 396.878 270.001 396.905 270.001C396.936 270.001 396.968 270.001 397 270.001L397.175 270C468.101 270.144 526.527 313.664 526.527 370.495C526.527 382.836 527.286 392.345 528.179 403.529C528.374 405.97 528.575 408.491 528.776 411.138L528.776 411.14C529.704 423.357 530.629 435.537 530.912 447.765Z" fill="currentColor"/>
<path d="M530.912 447.765L522.914 447.95L523.532 474.614L537.692 452.012L530.912 447.765ZM263.056 449.291L256.324 453.613L270.561 475.792L271.055 449.441L263.056 449.291ZM265.224 411.138L273.201 411.744L273.201 411.744L265.224 411.138ZM265.821 403.53L257.846 402.893L257.846 402.893L265.821 403.53ZM396.825 270.001V262.001H396.816L396.808 262.001L396.825 270.001ZM396.905 270.001L396.885 262.001L396.884 262.001L396.905 270.001ZM397 270.001L396.992 278.001L397.004 278.001L397 270.001ZM397.175 270L397.192 262.001L397.181 262L397.171 262L397.175 270ZM528.179 403.529L520.204 404.165L520.204 404.165L528.179 403.529ZM528.776 411.138L536.754 410.547L536.754 410.54L536.753 410.533L528.776 411.138ZM528.776 411.14L520.798 411.731L520.798 411.738L520.799 411.745L528.776 411.14ZM548 359.942C548 390.742 539.234 419.413 524.133 443.518L537.692 452.012C554.351 425.419 564 393.815 564 359.942H548ZM396.5 204.883C480.006 204.883 548 274.138 548 359.942H564C564 265.636 489.173 188.883 396.5 188.883V204.883ZM245 359.942C245 274.138 312.994 204.883 396.5 204.883V188.883C303.827 188.883 229 265.636 229 359.942H245ZM269.788 444.97C254.123 420.567 245 391.362 245 359.942H229C229 394.497 239.042 426.692 256.324 453.613L269.788 444.97ZM271.055 449.441C271.288 436.966 272.232 424.508 273.201 411.744L257.247 410.533C256.284 423.22 255.301 436.134 255.057 449.142L271.055 449.441ZM273.201 411.744C273.401 409.115 273.601 406.609 273.796 404.166L257.846 402.893C257.652 405.332 257.449 407.868 257.247 410.533L273.201 411.744ZM273.796 404.166C274.688 392.986 275.473 383.19 275.473 370.495H259.473C259.473 382.483 258.739 391.705 257.846 402.893L273.796 404.166ZM275.473 370.495C275.473 319.93 328.209 278.139 396.841 278.001L396.808 262.001C323.588 262.149 259.473 307.398 259.473 370.495H275.473ZM396.825 278.001C396.863 278.001 396.9 278.001 396.925 278.001L396.884 262.001C396.856 262.001 396.839 262.001 396.825 262.001V278.001ZM396.924 278.001C396.958 278.001 396.976 278.001 396.992 278.001L397.008 262.001C396.96 262.001 396.915 262.001 396.885 262.001L396.924 278.001ZM397.004 278.001L397.18 278L397.171 262L396.996 262.001L397.004 278.001ZM397.159 278C465.791 278.139 518.527 319.93 518.527 370.495H534.527C534.527 307.398 470.412 262.148 397.192 262.001L397.159 278ZM518.527 370.495C518.527 383.19 519.312 392.986 520.204 404.165L536.154 402.893C535.261 391.704 534.527 382.483 534.527 370.495H518.527ZM520.204 404.165C520.399 406.608 520.599 409.114 520.799 411.744L536.753 410.533C536.551 407.868 536.348 405.332 536.154 402.893L520.204 404.165ZM520.798 411.729L520.798 411.731L536.754 410.549L536.754 410.547L520.798 411.729ZM520.799 411.745C521.729 423.998 522.637 435.968 522.914 447.95L538.91 447.58C538.621 435.106 537.678 422.716 536.753 410.534L520.799 411.745Z" fill="#150C0C" mask="url(#path-2-outside-1_880_1676)"/>
<path d="M556 364.071H560V360.071C560 267.566 486.908 192 396.5 192C306.049 192 233 261.472 233 369V373H237C245.107 373 252.825 372.615 260.177 371.891C330.701 364.952 367.019 326.889 391.19 301.558C393.038 299.621 394.816 297.759 396.532 295.99C423.11 322.234 472.473 364.071 556 364.071Z" fill="currentColor" stroke="#150C0C" stroke-width="8"/>
</svg>
