<svg width="800" height="800" viewBox="0 0 800 800" fill="none" xmlns="http://www.w3.org/2000/svg">
<mask id="path-1-inside-1_880_1666" fill="white">
<path fill-rule="evenodd" clip-rule="evenodd" d="M421.774 192C447.323 192 469.905 207.493 483.552 231.198C513.189 238.18 535.482 268.34 535.482 304.487C535.482 311.854 534.556 318.971 532.831 325.695C539.236 340.613 543 358.832 543 378.5C543 408.867 534.027 435.779 520.214 452.423C520.113 450.995 520.011 449.567 519.909 448.138C519.72 445.491 519.531 442.97 519.347 440.529C518.508 429.345 517.794 419.836 517.794 407.495C517.794 350.664 462.856 307.143 396.165 307L396 307C395.97 307 395.94 307 395.91 307C395.885 307 395.86 307 395.835 307C329.143 307.143 274.206 350.664 274.206 407.495C274.206 419.836 273.492 429.345 272.653 440.529C272.469 442.97 272.28 445.491 272.091 448.138C271.808 452.108 271.525 456.074 271.262 460.04C256.397 439.872 247 410.149 247 377C247 345.634 255.414 317.333 268.913 297.295C271.787 251.059 304.373 214.605 344.147 214.605C352.556 214.605 360.644 216.235 368.197 219.241C381.867 202.419 400.824 192 421.774 192Z"/>
</mask>
<path fill-rule="evenodd" clip-rule="evenodd" d="M421.774 192C447.323 192 469.905 207.493 483.552 231.198C513.189 238.18 535.482 268.34 535.482 304.487C535.482 311.854 534.556 318.971 532.831 325.695C539.236 340.613 543 358.832 543 378.5C543 408.867 534.027 435.779 520.214 452.423C520.113 450.995 520.011 449.567 519.909 448.138C519.72 445.491 519.531 442.97 519.347 440.529C518.508 429.345 517.794 419.836 517.794 407.495C517.794 350.664 462.856 307.143 396.165 307L396 307C395.97 307 395.94 307 395.91 307C395.885 307 395.86 307 395.835 307C329.143 307.143 274.206 350.664 274.206 407.495C274.206 419.836 273.492 429.345 272.653 440.529C272.469 442.97 272.28 445.491 272.091 448.138C271.808 452.108 271.525 456.074 271.262 460.04C256.397 439.872 247 410.149 247 377C247 345.634 255.414 317.333 268.913 297.295C271.787 251.059 304.373 214.605 344.147 214.605C352.556 214.605 360.644 216.235 368.197 219.241C381.867 202.419 400.824 192 421.774 192Z" fill="currentColor"/>
<path d="M483.552 231.198L476.619 235.19L478.347 238.191L481.718 238.985L483.552 231.198ZM532.831 325.695L525.082 323.707L524.404 326.347L525.48 328.851L532.831 325.695ZM520.214 452.423L512.234 452.987L513.64 472.87L526.37 457.532L520.214 452.423ZM519.909 448.138L511.929 448.708L511.929 448.708L519.909 448.138ZM519.347 440.529L527.325 439.93L527.325 439.93L519.347 440.529ZM396.165 307L396.182 299L396.171 299L396.161 299L396.165 307ZM396 307L395.992 315L396.004 315L396 307ZM395.91 307L395.89 299L395.888 299L395.91 307ZM395.835 307V299H395.826L395.818 299L395.835 307ZM272.653 440.529L264.675 439.931L272.653 440.529ZM272.091 448.138L264.112 447.568L264.112 447.568L272.091 448.138ZM271.262 460.04L264.823 464.786L277.801 482.394L279.245 460.568L271.262 460.04ZM268.913 297.295L275.548 301.764L276.763 299.961L276.897 297.791L268.913 297.295ZM368.197 219.241L365.239 226.674L370.7 228.848L374.406 224.286L368.197 219.241ZM490.485 227.207C475.737 201.59 450.784 184 421.774 184V200C443.861 200 464.072 213.397 476.619 235.19L490.485 227.207ZM543.482 304.487C543.482 265.292 519.244 231.388 485.386 223.411L481.718 238.985C507.134 244.973 527.482 271.388 527.482 304.487H543.482ZM540.58 327.683C542.471 320.31 543.482 312.525 543.482 304.487H527.482C527.482 311.183 526.64 317.632 525.082 323.707L540.58 327.683ZM551 378.5C551 357.847 547.053 338.543 540.182 322.539L525.48 328.851C531.419 342.683 535 359.816 535 378.5H551ZM526.37 457.532C541.656 439.113 551 410.239 551 378.5H535C535 407.496 526.398 432.445 514.058 447.314L526.37 457.532ZM511.929 448.708C512.031 450.137 512.133 451.563 512.234 452.987L528.194 451.859C528.093 450.427 527.99 448.996 527.888 447.568L511.929 448.708ZM511.37 441.128C511.553 443.57 511.741 446.077 511.929 448.708L527.888 447.568C527.698 444.904 527.508 442.37 527.325 439.93L511.37 441.128ZM509.794 407.495C509.794 420.169 510.531 429.948 511.37 441.128L527.325 439.93C526.485 428.742 525.794 419.503 525.794 407.495H509.794ZM396.148 315C460.045 315.137 509.794 356.535 509.794 407.495H525.794C525.794 344.793 465.668 299.149 396.182 299L396.148 315ZM396.004 315L396.169 315L396.161 299L395.996 299L396.004 315ZM395.931 315C395.963 315 395.979 315 395.992 315L396.008 299C395.962 299 395.917 299 395.89 299L395.931 315ZM395.835 315C395.873 315 395.909 315 395.932 315L395.888 299C395.862 299 395.847 299 395.835 299V315ZM282.206 407.495C282.206 356.535 331.955 315.137 395.852 315L395.818 299C326.332 299.149 266.206 344.793 266.206 407.495H282.206ZM280.63 441.128C281.469 429.948 282.206 420.169 282.206 407.495H266.206C266.206 419.503 265.515 428.742 264.675 439.931L280.63 441.128ZM280.071 448.708C280.259 446.077 280.447 443.57 280.63 441.128L264.675 439.931C264.492 442.37 264.302 444.904 264.112 447.568L280.071 448.708ZM279.245 460.568C279.506 456.627 279.787 452.681 280.071 448.708L264.112 447.568C263.828 451.535 263.544 455.522 263.28 459.512L279.245 460.568ZM239 377C239 411.535 248.769 443.006 264.823 464.786L277.702 455.293C264.026 436.739 255 408.762 255 377H239ZM262.278 292.825C247.753 314.386 239 344.303 239 377H255C255 346.964 263.075 320.28 275.548 301.764L262.278 292.825ZM344.147 206.605C299.015 206.605 263.988 247.577 260.928 296.798L276.897 297.791C279.586 254.541 309.73 222.605 344.147 222.605V206.605ZM371.156 211.808C362.693 208.44 353.603 206.605 344.147 206.605V222.605C351.509 222.605 358.595 224.029 365.239 226.674L371.156 211.808ZM421.774 184C398.02 184 376.91 195.834 361.989 214.196L374.406 224.286C386.825 209.004 403.627 200 421.774 200V184Z" fill="#150C0C" mask="url(#path-1-inside-1_880_1666)"/>
</svg>
