<svg width="800" height="800" viewBox="0 0 800 800" fill="none" xmlns="http://www.w3.org/2000/svg">
<path d="M449.394 348.158C468.511 340.49 490.145 340.853 509.488 347.815C519.011 351.242 526.215 359.318 528.81 369.188C533.713 387.834 531.885 404.151 523.595 415.254C515.401 426.228 500.196 433.022 476.239 431.21C454.203 428.273 442.871 417.775 437.306 405.588C431.61 393.113 431.75 378.386 433.776 367.061C435.307 358.505 441.235 351.431 449.394 348.158Z" stroke="black" stroke-width="7"/>
<path d="M351.606 348.158C332.489 340.49 310.855 340.853 291.512 347.815C281.989 351.242 274.785 359.318 272.19 369.188C267.287 387.834 269.115 404.151 277.405 415.254C285.599 426.228 300.804 433.022 324.761 431.21C346.797 428.273 358.129 417.775 363.694 405.588C369.39 393.113 369.25 378.386 367.224 367.061C365.693 358.505 359.765 351.431 351.606 348.158Z" stroke="black" stroke-width="7"/>
<path d="M363 357.956C393.509 349.523 409.41 349.905 438 360" stroke="black" stroke-width="7"/>
</svg>
