<svg width="800" height="800" viewBox="0 0 800 800" fill="none" xmlns="http://www.w3.org/2000/svg">
<mask id="path-1-inside-1_905_3252" fill="white">
<path fill-rule="evenodd" clip-rule="evenodd" d="M527.496 400.943C541.78 403.297 547 431.214 547 465.307C547 537.921 472.235 583.782 400 583.782C327.765 583.782 253 537.921 253 465.307C253 431.214 258.22 403.297 272.504 400.943C273.594 400.763 274.496 401.665 274.582 402.766C275.682 416.984 288 447.709 315.369 447.709C328.829 447.709 340.15 442.853 352.18 437.693C365.822 431.842 380.376 425.599 400 425.599C419.624 425.599 434.178 431.842 447.82 437.693C459.85 442.853 471.171 447.709 484.631 447.709C512 447.709 524.318 416.984 525.418 402.766C525.504 401.665 526.406 400.763 527.496 400.943Z"/>
</mask>
<path fill-rule="evenodd" clip-rule="evenodd" d="M527.496 400.943C541.78 403.297 547 431.214 547 465.307C547 537.921 472.235 583.782 400 583.782C327.765 583.782 253 537.921 253 465.307C253 431.214 258.22 403.297 272.504 400.943C273.594 400.763 274.496 401.665 274.582 402.766C275.682 416.984 288 447.709 315.369 447.709C328.829 447.709 340.15 442.853 352.18 437.693C365.822 431.842 380.376 425.599 400 425.599C419.624 425.599 434.178 431.842 447.82 437.693C459.85 442.853 471.171 447.709 484.631 447.709C512 447.709 524.318 416.984 525.418 402.766C525.504 401.665 526.406 400.763 527.496 400.943Z" fill="currentColor"/>
<path d="M527.496 400.943L528.797 393.049V393.049L527.496 400.943ZM400 583.782V591.782V583.782ZM272.504 400.943L273.805 408.836V408.836L272.504 400.943ZM274.582 402.766L266.605 403.384L266.605 403.384L274.582 402.766ZM352.18 437.693L355.334 445.045V445.045L352.18 437.693ZM447.82 437.693L444.666 445.045L447.82 437.693ZM525.418 402.766L517.442 402.148L517.442 402.149L525.418 402.766ZM555 465.307C555 447.995 553.689 431.682 550.332 419.152C548.657 412.9 546.348 407.103 543.069 402.534C539.723 397.871 535.037 394.078 528.797 393.049L526.195 408.836C527.097 408.985 528.42 409.564 530.07 411.863C531.788 414.256 533.462 418.01 534.877 423.293C537.701 433.834 539 448.526 539 465.307H555ZM400 591.782C437.692 591.782 476.144 579.846 505.351 558.202C534.662 536.482 555 504.657 555 465.307H539C539 498.571 521.956 525.983 495.825 545.347C469.592 564.787 434.543 575.782 400 575.782V591.782ZM400 575.782C365.457 575.782 330.408 564.787 304.175 545.347C278.044 525.983 261 498.571 261 465.307H245C245 504.657 265.338 536.482 294.649 558.202C323.856 579.846 362.308 591.782 400 591.782V575.782ZM261 465.307C261 448.526 262.299 433.834 265.123 423.293C266.538 418.01 268.212 414.256 269.93 411.863C271.58 409.564 272.903 408.985 273.805 408.836L271.203 393.049C264.963 394.078 260.277 397.871 256.931 402.534C253.652 407.103 251.343 412.9 249.668 419.152C246.311 431.682 245 447.995 245 465.307H261ZM273.805 408.836C271.692 409.185 269.773 408.423 268.521 407.278C267.344 406.202 266.714 404.79 266.605 403.384L282.558 402.149C282.206 397.603 278.057 391.92 271.203 393.049L273.805 408.836ZM266.605 403.384C267.264 411.894 271.098 424.509 278.577 435.165C286.165 445.977 298.251 455.709 315.369 455.709V439.709C305.118 439.709 297.361 434.078 291.673 425.974C285.875 417.713 283 407.856 282.558 402.149L266.605 403.384ZM315.369 455.709C330.72 455.709 343.506 450.119 355.334 445.045L349.027 430.341C336.793 435.588 326.939 439.709 315.369 439.709V455.709ZM355.334 445.045C368.981 439.192 382.183 433.599 400 433.599V417.599C378.57 417.599 362.663 424.492 349.027 430.341L355.334 445.045ZM450.973 430.341C437.337 424.492 421.43 417.599 400 417.599V433.599C417.817 433.599 431.019 439.192 444.666 445.045L450.973 430.341ZM484.631 439.709C473.061 439.709 463.207 435.588 450.973 430.341L444.666 445.045C456.494 450.119 469.28 455.709 484.631 455.709V439.709ZM517.442 402.149C517 407.856 514.125 417.713 508.327 425.974C502.639 434.078 494.882 439.709 484.631 439.709V455.709C501.749 455.709 513.835 445.977 521.423 435.165C528.902 424.509 532.736 411.894 533.395 403.384L517.442 402.149ZM528.797 393.049C521.943 391.92 517.794 397.603 517.442 402.148L533.395 403.384C533.286 404.79 532.656 406.202 531.479 407.278C530.227 408.423 528.308 409.185 526.195 408.836L528.797 393.049Z" fill="#150C0C" mask="url(#path-1-inside-1_905_3252)"/>
</svg>
