<svg width="800" height="800" viewBox="0 0 800 800" fill="none" xmlns="http://www.w3.org/2000/svg">
<mask id="path-1-inside-1_905_3232" fill="white">
<path fill-rule="evenodd" clip-rule="evenodd" d="M270.107 407.588C266.961 417.613 261 440.072 261 466.306C261 522.92 327.765 568.781 400 568.781V568.781C472.235 568.781 539 522.92 539 466.306C539 440.072 533.039 417.613 529.893 407.588C529.32 405.762 526.741 405.798 526.057 407.585C521.368 419.839 508.081 448 485 448C471.077 448 459.589 443.233 447.457 438.199C433.882 432.566 419.501 426.599 400 426.599V426.598C380.499 426.598 366.118 432.566 352.543 438.198C340.411 443.233 328.923 448 315 448C291.919 448 278.632 419.839 273.943 407.585C273.259 405.798 270.68 405.762 270.107 407.588Z"/>
</mask>
<path fill-rule="evenodd" clip-rule="evenodd" d="M270.107 407.588C266.961 417.613 261 440.072 261 466.306C261 522.92 327.765 568.781 400 568.781V568.781C472.235 568.781 539 522.92 539 466.306C539 440.072 533.039 417.613 529.893 407.588C529.32 405.762 526.741 405.798 526.057 407.585C521.368 419.839 508.081 448 485 448C471.077 448 459.589 443.233 447.457 438.199C433.882 432.566 419.501 426.599 400 426.599V426.598C380.499 426.598 366.118 432.566 352.543 438.198C340.411 443.233 328.923 448 315 448C291.919 448 278.632 419.839 273.943 407.585C273.259 405.798 270.68 405.762 270.107 407.588Z" fill="currentColor"/>
<path d="M270.107 407.588L262.474 405.193L262.474 405.193L270.107 407.588ZM400 568.781H408V560.781H400V568.781ZM400 568.781H392V576.781H400V568.781ZM529.893 407.588L522.26 409.983L522.26 409.983L529.893 407.588ZM526.057 407.585L533.529 410.444L533.529 410.444L526.057 407.585ZM447.457 438.199L444.391 445.588L447.457 438.199ZM400 426.599H392V434.599H400V426.599ZM400 426.598H408V418.598H400V426.598ZM352.543 438.198L349.477 430.809L352.543 438.198ZM273.943 407.585L266.471 410.444L266.471 410.444L273.943 407.585ZM269 466.306C269 441.189 274.725 419.59 277.74 409.983L262.474 405.193C259.197 415.635 253 438.954 253 466.306H269ZM400 560.781C365.489 560.781 332.39 549.803 308.09 532.284C283.738 514.728 269 491.269 269 466.306H253C253 497.957 271.645 525.735 298.733 545.263C325.874 564.829 362.276 576.781 400 576.781V560.781ZM392 568.781V568.781H408V568.781H392ZM400 576.781C437.724 576.781 474.126 564.829 501.267 545.263C528.355 525.735 547 497.957 547 466.306H531C531 491.269 516.262 514.729 491.91 532.285C467.61 549.803 434.511 560.781 400 560.781V576.781ZM547 466.306C547 438.955 540.803 415.635 537.526 405.193L522.26 409.983C525.275 419.591 531 441.189 531 466.306H547ZM537.526 405.193C536.05 400.49 531.805 398.212 527.976 398.232C524.237 398.251 520.231 400.424 518.585 404.726L533.529 410.444C532.566 412.959 530.192 414.221 528.057 414.232C525.833 414.243 523.163 412.86 522.26 409.983L537.526 405.193ZM518.585 404.726C516.363 410.534 512.216 419.772 506.156 427.419C500.026 435.154 492.992 440 485 440V456C500.09 456 511.239 446.765 518.696 437.356C526.222 427.859 531.062 416.89 533.529 410.444L518.585 404.726ZM485 440C472.899 440 462.822 435.913 450.523 430.81L444.391 445.588C456.357 450.553 469.256 456 485 456V440ZM450.523 430.81C436.942 425.174 421.249 418.599 400 418.599V434.599C417.753 434.599 430.822 439.958 444.391 445.588L450.523 430.81ZM392 426.598V426.599H408V426.598H392ZM355.609 445.588C369.178 439.957 382.247 434.598 400 434.598V418.598C378.751 418.598 363.058 425.174 349.477 430.809L355.609 445.588ZM315 456C330.744 456 343.643 450.553 355.609 445.588L349.477 430.809C337.178 435.913 327.101 440 315 440V456ZM266.471 410.444C268.938 416.89 273.778 427.859 281.304 437.356C288.761 446.765 299.91 456 315 456V440C307.008 440 299.974 435.154 293.844 427.419C287.784 419.772 283.637 410.534 281.415 404.726L266.471 410.444ZM277.74 409.983C276.837 412.86 274.167 414.243 271.943 414.231C269.808 414.221 267.434 412.959 266.471 410.444L281.415 404.726C279.769 400.424 275.763 398.25 272.024 398.232C268.196 398.212 263.95 400.49 262.474 405.193L277.74 409.983Z" fill="#150C0C" mask="url(#path-1-inside-1_905_3232)"/>
</svg>
