<svg width="800" height="800" viewBox="0 0 800 800" fill="none" xmlns="http://www.w3.org/2000/svg">
<path d="M351.581 344.721C333.119 337.619 309.849 336.775 289.479 341.285C274.186 344.67 264.944 360.017 267.777 375.874C270.639 391.898 276.193 404.814 284.449 413.679C292.615 422.448 303.646 427.5 318.11 427.5C340.706 427.5 353.59 417.477 360.525 404.598C367.608 391.445 368.643 374.966 366.521 362.312C365.177 354.298 359.408 347.732 351.581 344.721Z" stroke="#9A9A9A" stroke-width="7"/>
<path d="M449.419 344.721C467.881 337.619 491.151 336.775 511.521 341.285C526.814 344.67 536.056 360.017 533.223 375.874C530.361 391.898 524.807 404.814 516.551 413.679C508.385 422.448 497.354 427.5 482.89 427.5C460.294 427.5 447.41 417.477 440.475 404.598C433.392 391.445 432.357 374.966 434.479 362.312C435.823 354.298 441.592 347.732 449.419 344.721Z" stroke="#9A9A9A" stroke-width="7"/>
<path d="M363 355C391.809 349.712 409.942 349.622 437 355" stroke="#9A9A9A" stroke-width="7"/>
</svg>
