<svg width="800" height="800" viewBox="0 0 800 800" fill="none" xmlns="http://www.w3.org/2000/svg">
<path d="M351.581 350.721C333.119 343.619 309.849 342.775 289.479 347.285C274.186 350.67 264.944 366.017 267.777 381.874C270.639 397.898 276.193 410.814 284.449 419.679C292.615 428.448 303.646 433.5 318.11 433.5C340.706 433.5 353.59 423.477 360.525 410.598C367.608 397.445 368.643 380.966 366.521 368.312C365.177 360.298 359.408 353.732 351.581 350.721Z" stroke="#9A9A9A" stroke-width="7"/>
<path d="M449.419 350.721C467.881 343.619 491.151 342.775 511.521 347.285C526.814 350.67 536.056 366.017 533.223 381.874C530.361 397.898 524.807 410.814 516.551 419.679C508.385 428.448 497.354 433.5 482.89 433.5C460.294 433.5 447.41 423.477 440.475 410.598C433.392 397.445 432.357 380.966 434.479 368.312C435.823 360.298 441.592 353.732 449.419 350.721Z" stroke="#9A9A9A" stroke-width="7"/>
<path d="M363 361C391.809 355.712 409.942 355.622 437 361" stroke="#9A9A9A" stroke-width="7"/>
</svg>
