<svg width="800" height="800" viewBox="0 0 800 800" fill="none" xmlns="http://www.w3.org/2000/svg">
<g clip-path="url(#clip0_904_3035)">
<path d="M428.523 391.015C428.025 368.321 444.999 348.178 467.43 344.585C478.216 342.857 489.048 343.127 500.58 345.873C518.204 350.07 531.948 364.784 533.266 382.714C533.994 392.615 533.022 402.6 530.404 411.879C526.135 427.006 512.224 437.341 496.436 439.526C486.458 440.908 476.02 440.908 465.085 438.953C447.048 435.729 432.497 421.496 429.635 403.46C428.986 399.373 428.616 395.232 428.523 391.015Z" stroke="#423636" stroke-width="3"/>
<path d="M372.477 391.015C372.975 368.321 356.001 348.178 333.57 344.585C322.784 342.857 311.952 343.127 300.42 345.873C282.796 350.07 269.052 364.784 267.734 382.714C267.006 392.615 267.978 402.6 270.596 411.879C274.865 427.006 288.776 437.341 304.564 439.526C314.542 440.908 324.98 440.908 335.915 438.953C353.952 435.729 368.503 421.496 371.365 403.46C372.014 399.373 372.384 395.232 372.477 391.015Z" stroke="#423636" stroke-width="3"/>
<path d="M361 359C361 359 380.462 353 400.591 353C420.72 353 439 361 439 361" stroke="#423636" stroke-width="3"/>
</g>
<defs>
<clipPath id="clip0_904_3035">
<rect width="269" height="100" fill="white" transform="translate(266 342)"/>
</clipPath>
</defs>
</svg>
