<svg width="50" height="50" viewBox="0 0 50 50" fill="none" xmlns="http://www.w3.org/2000/svg">
<path d="M21.8906 9.68711C21.847 9.25259 21.895 8.81375 22.0314 8.3989C22.1678 7.98405 22.3896 7.60239 22.6826 7.27854C22.9755 6.95469 23.3331 6.69584 23.7323 6.51869C24.1314 6.34153 24.5633 6.25 25 6.25C25.4367 6.25 25.8686 6.34153 26.2677 6.51869C26.6669 6.69584 27.0245 6.95469 27.3174 7.27854C27.6104 7.60239 27.8322 7.98405 27.9686 8.3989C28.1051 8.81375 28.153 9.25259 28.1094 9.68711L26.8969 29.5309C26.85 30.0014 26.63 30.4378 26.2794 30.7551C25.9289 31.0725 25.4729 31.2483 25 31.2483C24.5271 31.2483 24.0711 31.0725 23.7206 30.7551C23.37 30.4378 23.15 30.0014 23.1031 29.5309L21.8906 9.68711ZM21.875 37.4996C21.875 36.6708 22.2042 35.876 22.7903 35.2899C23.3763 34.7039 24.1712 34.3746 25 34.3746C25.8288 34.3746 26.6237 34.7039 27.2097 35.2899C27.7958 35.876 28.125 36.6708 28.125 37.4996C28.125 38.3284 27.7958 39.1233 27.2097 39.7093C26.6237 40.2954 25.8288 40.6246 25 40.6246C24.1712 40.6246 23.3763 40.2954 22.7903 39.7093C22.2042 39.1233 21.875 38.3284 21.875 37.4996Z" fill="#C72323"/>
</svg>
