<svg width="40" height="40" viewBox="0 0 40 40" fill="none" xmlns="http://www.w3.org/2000/svg">
<path fill-rule="evenodd" clip-rule="evenodd" d="M20.9883 38.7631L20.9683 38.7664L20.85 38.8247L20.8167 38.8314L20.7933 38.8247L20.675 38.7647C20.6572 38.7603 20.6439 38.7636 20.635 38.7747L20.6283 38.7914L20.6 39.5047L20.6083 39.5381L20.625 39.5597L20.7983 39.6831L20.8233 39.6897L20.8433 39.6831L21.0167 39.5597L21.0367 39.5331L21.0433 39.5047L21.015 38.7931C21.0106 38.7753 21.0017 38.7653 20.9883 38.7631ZM21.4283 38.5747L21.405 38.5781L21.0983 38.7331L21.0817 38.7497L21.0767 38.7681L21.1067 39.4847L21.115 39.5047L21.1283 39.5181L21.4633 39.6714C21.4844 39.677 21.5006 39.6725 21.5117 39.6581L21.5183 39.6347L21.4617 38.6114C21.4561 38.5903 21.445 38.5781 21.4283 38.5747ZM20.2367 38.5781C20.2293 38.5736 20.2205 38.5722 20.2122 38.574C20.2038 38.5759 20.1964 38.5809 20.1917 38.5881L20.1817 38.6114L20.125 39.6347C20.1261 39.6547 20.1356 39.6681 20.1533 39.6747L20.1783 39.6714L20.5133 39.5164L20.53 39.5031L20.535 39.4847L20.565 38.7681L20.56 38.7481L20.5433 38.7314L20.2367 38.5781Z" fill="#FFAE00"/>
<path fill-rule="evenodd" clip-rule="evenodd" d="M19.9987 3.33301C10.7937 3.33301 3.33203 10.7947 3.33203 19.9997C3.33203 29.2047 10.7937 36.6663 19.9987 36.6663C29.2037 36.6663 36.6654 29.2047 36.6654 19.9997C36.6654 10.7947 29.2037 3.33301 19.9987 3.33301ZM14.1654 15.833C14.1654 15.067 14.3162 14.3084 14.6094 13.6007C14.9026 12.893 15.3322 12.2499 15.8739 11.7082C16.4156 11.1665 17.0586 10.7369 17.7664 10.4437C18.4741 10.1506 19.2327 9.99967 19.9987 9.99967C20.7647 9.99967 21.5233 10.1506 22.231 10.4437C22.9387 10.7369 23.5818 11.1665 24.1235 11.7082C24.6652 12.2499 25.0948 12.893 25.388 13.6007C25.6811 14.3084 25.832 15.067 25.832 15.833C25.832 17.3801 25.2174 18.8638 24.1235 19.9578C23.0295 21.0518 21.5458 21.6663 19.9987 21.6663C18.4516 21.6663 16.9679 21.0518 15.8739 19.9578C14.7799 18.8638 14.1654 17.3801 14.1654 15.833ZM30.4287 28.3063C29.1807 29.8753 27.5945 31.1421 25.7886 32.0125C23.9826 32.8829 22.0035 33.3343 19.9987 33.333C17.9939 33.3343 16.0148 32.8829 14.2088 32.0125C12.4029 31.1421 10.8167 29.8753 9.5687 28.3063C12.2704 26.368 15.957 24.9997 19.9987 24.9997C24.0404 24.9997 27.727 26.368 30.4287 28.3063Z" fill="#FFAE00"/>
</svg>
