<svg width="800" height="800" viewBox="0 0 800 800" fill="none" xmlns="http://www.w3.org/2000/svg">
<path d="M341 402C341 408.551 332.941 418 323 418C313.059 418 305 410.837 305 402C305 393.163 313.059 386 323 386C332.941 386 341 395.449 341 402Z" fill="#150C0C"/>
<path d="M460 402C460 408.551 468.059 418 478 418C487.941 418 496 410.837 496 402C496 393.163 487.941 386 478 386C468.059 386 460 395.449 460 402Z" fill="#150C0C"/>
<ellipse cx="475" cy="396" rx="4" ry="3" fill="white" fill-opacity="0.9"/>
<ellipse cx="317" cy="396" rx="4" ry="3" fill="white" fill-opacity="0.9"/>
</svg>
